<?xml version="1.0" standalone="no"?>
<!DOCTYPE svg PUBLIC "-//W3C//DTD SVG 20010904//EN"
 "http://www.w3.org/TR/2001/REC-SVG-20010904/DTD/svg10.dtd">
<svg version="1.0" xmlns="http://www.w3.org/2000/svg"
 width="500.000000pt" height="500.000000pt" viewBox="0 0 500.000000 500.000000"
 preserveAspectRatio="xMidYMid meet">

<g transform="translate(0.000000,500.000000) scale(0.100000,-0.100000)"
fill="#000000" stroke="none">
<path d="M2384 3908 c-45 -40 -69 -70 -69 -84 0 -14 70 -98 204 -244 198 -215
203 -222 185 -240 -202 -191 -588 -540 -597 -539 -7 0 -104 102 -216 225 -112
123 -207 224 -211 224 -18 0 -149 -123 -160 -150 -18 -44 -5 -92 40 -143 22
-25 40 -47 40 -50 0 -3 -23 -28 -51 -55 -46 -43 -52 -54 -56 -98 -5 -49 -4
-52 51 -115 l57 -64 -50 -45 c-27 -25 -54 -55 -60 -67 -23 -45 -7 -106 38
-147 28 -25 27 -32 -13 -70 -19 -18 -38 -45 -42 -61 -15 -61 68 -147 129 -131
15 3 42 20 61 36 18 17 37 30 41 30 4 0 16 -11 27 -25 27 -34 69 -55 112 -55
29 0 47 10 91 50 30 28 59 50 64 50 6 0 26 -21 47 -46 79 -95 148 -98 233 -10
19 20 40 36 46 36 6 0 21 -14 34 -31 53 -71 134 -89 193 -42 63 50 118 107
118 121 0 13 -58 79 -319 361 l-96 103 66 62 c35 33 173 161 306 283 l242 223
207 -225 c114 -124 215 -225 223 -225 9 0 49 30 89 68 68 63 72 70 72 110 0
51 -11 75 -56 122 l-34 36 55 54 c85 84 86 126 3 217 l-50 55 50 52 c82 82 88
132 27 203 l-33 38 39 42 c30 33 39 51 39 78 0 44 -23 81 -63 101 -39 21 -80
12 -124 -26 -40 -35 -49 -37 -63 -9 -17 30 -70 59 -110 59 -39 0 -66 -15 -123
-69 l-38 -36 -47 52 c-85 93 -130 98 -220 23 l-61 -51 -50 51 c-47 47 -53 50
-100 50 -46 0 -53 -4 -117 -62z m216 -80 c534 -574 800 -870 800 -891 0 -32
-85 -115 -105 -102 -13 9 -798 860 -874 947 l-34 39 44 45 c62 64 77 60 169
-38z m264 49 c209 -223 552 -602 557 -615 4 -9 2 -25 -3 -36 -13 -23 -78 -81
-92 -81 -9 0 -440 462 -610 653 l-21 24 50 44 c28 24 58 44 69 44 10 0 33 -15
50 -33z m302 5 c5 -4 67 -69 137 -144 87 -94 127 -145 127 -161 0 -25 -81
-112 -99 -106 -14 5 -301 319 -301 329 0 14 94 90 110 90 8 0 20 -4 26 -8z
m254 -22 c27 -27 25 -41 -8 -73 -35 -34 -41 -33 -71 4 l-24 30 34 29 c41 35
44 35 69 10z m-600 -612 c0 -4 -136 -133 -302 -287 l-303 -280 -29 28 c-16 16
-25 34 -21 40 3 7 140 135 303 286 l296 275 28 -27 c15 -15 28 -30 28 -35z
m-660 -607 c234 -255 425 -466 425 -469 0 -4 -22 -27 -48 -51 -42 -39 -51 -43
-73 -35 -13 5 -142 138 -287 295 -144 157 -337 367 -429 467 -195 210 -195
212 -120 279 l47 42 30 -33 c17 -18 221 -241 455 -495z m-187 -129 l307 -337
-49 -47 c-27 -27 -57 -48 -65 -48 -22 0 -49 28 -312 315 -299 327 -304 332
-304 352 0 17 88 104 105 102 5 0 148 -152 318 -337z m-169 -156 l146 -160
-37 -39 c-52 -53 -68 -60 -96 -45 -13 7 -79 73 -147 146 -144 157 -147 164
-74 228 27 23 52 39 56 36 3 -4 72 -79 152 -166z m-172 -153 l28 -27 -27 -28
c-41 -42 -93 -33 -93 16 0 17 43 64 59 66 3 0 18 -12 33 -27z"/>
<path d="M2028 1813 c-38 -6 -84 -52 -97 -98 -36 -132 108 -236 213 -154 33
26 32 30 -3 51 -26 14 -32 14 -42 2 -18 -22 -66 -17 -83 8 -36 51 -9 128 44
128 17 0 33 -7 38 -17 9 -16 12 -16 36 0 14 10 26 22 26 27 0 15 -42 50 -61
50 -10 0 -23 2 -31 3 -7 2 -25 2 -40 0z"/>
<path d="M2240 1670 l0 -140 68 0 c107 0 168 43 179 126 7 53 -17 108 -59 134
-26 15 -50 20 -110 20 l-78 0 0 -140z m150 60 c24 -24 26 -77 4 -108 -11 -15
-25 -22 -50 -22 l-34 0 0 75 0 75 30 0 c17 0 39 -9 50 -20z"/>
<path d="M2594 1750 c-33 -13 -38 -30 -17 -52 17 -16 23 -17 46 -7 30 13 59 6
52 -13 -3 -7 -26 -24 -52 -38 -42 -22 -73 -65 -73 -100 0 -6 39 -10 105 -10
l105 0 0 35 c0 34 -1 35 -42 35 l-43 0 33 22 c19 11 38 32 43 44 11 30 -3 69
-30 83 -23 13 -97 13 -127 1z"/>
<path d="M2830 1730 c0 -29 1 -30 50 -30 28 0 50 -5 50 -10 0 -6 -20 -51 -45
-100 -25 -49 -45 -94 -45 -100 0 -7 15 -10 38 -8 37 3 37 4 104 133 37 72 67
133 68 138 0 4 -49 7 -110 7 l-110 0 0 -30z"/>
<path d="M1380 1350 l0 -70 53 2 c50 1 50 2 10 5 -38 4 -43 7 -43 29 0 20 5
24 30 24 17 0 30 5 30 10 0 6 -13 10 -30 10 -25 0 -30 4 -30 24 0 22 5 25 43
29 40 3 40 4 -10 5 l-53 2 0 -70z"/>
<path d="M1510 1350 l0 -70 43 0 c52 0 77 22 77 68 0 45 -30 72 -80 72 l-40 0
0 -70z m83 48 c9 -7 19 -25 22 -40 8 -33 -23 -68 -60 -68 -24 0 -25 3 -25 60
0 56 2 60 23 60 13 0 31 -6 40 -12z"/>
<path d="M1671 1368 c-1 -65 14 -88 58 -88 43 0 61 28 60 91 l-1 54 -9 -54
c-10 -60 -23 -81 -49 -81 -27 0 -44 28 -51 84 l-6 51 -2 -57z"/>
<path d="M1852 1404 c-28 -20 -31 -83 -4 -107 23 -21 75 -22 92 -2 8 9 9 15 2
15 -6 0 -14 -4 -17 -10 -11 -18 -53 -11 -69 12 -22 30 -20 54 5 79 20 20 28
20 74 4 20 -7 20 -6 1 9 -25 20 -55 20 -84 0z"/>
<path d="M2018 1403 c-3 -10 -15 -42 -27 -70 -11 -29 -17 -53 -12 -53 6 0 13
9 16 20 5 15 15 20 40 20 25 0 35 -5 40 -20 3 -11 10 -20 15 -20 12 0 -43 133
-57 137 -6 2 -13 -4 -15 -14z m42 -69 c0 -2 -11 -4 -25 -4 -28 0 -30 8 -13 45
l12 26 13 -32 c7 -17 13 -33 13 -35z"/>
<path d="M2140 1400 c-24 -24 -26 -67 -4 -98 18 -26 75 -30 94 -7 8 9 9 15 2
15 -6 0 -14 -4 -17 -10 -11 -18 -53 -11 -69 12 -22 30 -20 54 5 79 20 20 28
20 74 4 20 -7 20 -6 1 9 -27 22 -62 20 -86 -4z"/>
<path d="M2283 1350 c0 -41 2 -58 4 -37 2 20 2 54 0 75 -2 20 -4 3 -4 -38z"/>
<path d="M2350 1400 c-43 -43 -14 -120 44 -120 42 0 66 26 66 72 0 62 -67 91
-110 48z m80 -10 c25 -25 25 -51 1 -81 -16 -20 -23 -22 -47 -14 -23 8 -30 17
-32 44 -4 34 19 71 45 71 7 0 22 -9 33 -20z"/>
<path d="M2500 1350 c0 -81 17 -95 22 -18 l3 52 40 -52 c21 -29 43 -52 47 -52
4 0 7 33 6 73 l-1 72 -6 -60 -6 -60 -45 58 c-25 31 -48 57 -52 57 -5 0 -8 -31
-8 -70z"/>
<path d="M2730 1350 c0 -40 4 -70 10 -70 6 0 10 14 10 30 0 27 3 30 30 30 17
0 30 5 30 10 0 6 -13 10 -30 10 -25 0 -30 4 -30 24 0 22 5 25 43 29 40 3 40 4
-10 5 l-53 2 0 -70z"/>
<path d="M2860 1350 c0 -40 4 -70 10 -70 6 0 10 30 10 70 0 40 -4 70 -10 70
-6 0 -10 -30 -10 -70z"/>
<path d="M2930 1405 c-18 -22 -8 -49 25 -60 44 -15 55 -24 48 -41 -5 -13 -15
-15 -46 -11 -26 4 -36 2 -30 -4 6 -6 28 -9 49 -7 36 3 39 6 39 32 0 24 -6 31
-30 39 -46 15 -58 27 -43 44 8 10 22 13 40 9 18 -3 27 -2 23 4 -9 15 -61 12
-75 -5z"/>
<path d="M3060 1350 c0 -40 4 -70 10 -70 6 0 10 30 10 70 0 40 -4 70 -10 70
-6 0 -10 -30 -10 -70z"/>
<path d="M3135 1400 c-41 -46 -10 -120 50 -120 18 0 39 7 46 17 12 15 12 16
-6 9 -44 -18 -56 -18 -75 -1 -11 10 -20 29 -20 42 0 40 57 81 75 53 3 -5 11
-10 17 -10 7 0 6 6 -2 15 -18 21 -64 19 -85 -5z"/>
<path d="M3292 1368 c-11 -29 -23 -61 -27 -70 -4 -10 -3 -18 3 -18 5 0 12 9
15 20 7 28 62 28 77 -1 7 -11 14 -18 17 -15 7 7 -47 136 -57 136 -4 0 -16 -24
-28 -52z m47 -8 c10 -29 9 -30 -19 -30 -27 0 -28 1 -17 30 6 17 14 30 18 30 4
0 12 -13 18 -30z"/>
<path d="M3494 1376 c14 -25 26 -56 26 -70 0 -14 5 -26 10 -26 6 0 10 12 10
27 0 14 11 46 25 70 14 23 22 43 17 43 -5 0 -17 -16 -28 -35 -10 -19 -21 -35
-24 -35 -3 0 -14 16 -24 35 -11 19 -23 35 -29 35 -5 0 3 -20 17 -44z"/>
<path d="M1937 1163 c-4 -3 -7 -37 -7 -75 l0 -68 31 0 c32 0 69 15 81 34 4 6
8 25 8 41 0 17 -4 35 -8 41 -18 27 -88 45 -105 27z m90 -39 c15 -24 15 -29 2
-53 -10 -18 -24 -27 -47 -29 l-32 -3 0 55 c0 55 0 56 30 56 21 0 35 -8 47 -26z"/>
<path d="M2090 1095 l0 -75 51 0 c31 0 48 4 44 10 -3 6 -22 10 -41 10 -29 0
-34 3 -34 24 0 21 5 25 38 29 l37 4 -37 1 c-33 2 -38 5 -38 27 0 22 4 25 35
25 19 0 35 5 35 10 0 6 -20 10 -45 10 l-45 0 0 -75z"/>
<path d="M2227 1163 c-11 -10 -8 -143 3 -143 6 0 10 14 10 30 0 28 3 30 35 30
45 0 64 30 40 66 -11 17 -25 24 -49 24 -18 0 -36 -3 -39 -7z m78 -43 c0 -21
-5 -26 -32 -28 -31 -3 -33 -1 -33 28 0 29 2 31 33 28 27 -2 32 -7 32 -28z"/>
<path d="M2375 1145 c-14 -13 -25 -36 -25 -50 0 -30 41 -75 68 -75 36 0 66 34
66 75 0 68 -63 97 -109 50z m87 -20 c17 -38 0 -79 -35 -83 -50 -6 -73 39 -47
89 16 29 67 26 82 -6z"/>
<path d="M2527 1163 c-11 -10 -8 -131 3 -138 6 -4 10 7 10 24 0 42 32 42 57 1
22 -38 38 -39 19 -1 -14 26 -14 30 -1 41 35 29 2 80 -52 80 -16 0 -33 -3 -36
-7z m78 -43 c0 -21 -5 -26 -32 -28 -31 -3 -33 -1 -33 28 0 29 2 31 33 28 27
-2 32 -7 32 -28z"/>
<path d="M2660 1160 c0 -5 9 -10 20 -10 18 0 20 -7 20 -59 0 -33 5 -63 10 -66
6 -4 10 18 10 59 0 64 1 66 25 66 14 0 25 5 25 10 0 6 -25 10 -55 10 -30 0
-55 -4 -55 -10z"/>
<path d="M2807 1163 c-4 -3 -7 -37 -7 -75 l0 -68 50 0 c28 0 50 5 50 10 0 6
-18 10 -40 10 -36 0 -40 3 -40 24 0 21 5 25 38 29 l37 4 -37 1 c-33 2 -38 5
-38 27 0 23 4 25 40 25 22 0 40 5 40 10 0 11 -83 14 -93 3z"/>
<path d="M2946 1154 c-9 -8 -16 -21 -16 -28 0 -17 21 -36 40 -36 9 0 25 -7 36
-15 18 -15 18 -15 0 -29 -13 -11 -25 -12 -43 -5 -34 13 -42 3 -10 -12 30 -14
72 -5 81 16 10 26 -5 44 -46 55 -29 8 -38 16 -36 28 3 13 13 17 41 16 41 -1
50 10 15 20 -35 9 -45 7 -62 -10z"/>
</g>
</svg>
