<?xml version="1.0" standalone="no"?>
<!DOCTYPE svg PUBLIC "-//W3C//DTD SVG 20010904//EN"
 "http://www.w3.org/TR/2001/REC-SVG-20010904/DTD/svg10.dtd">
<svg version="1.0" xmlns="http://www.w3.org/2000/svg"
 width="640.000000pt" height="640.000000pt" viewBox="0 0 640.000000 640.000000"
 preserveAspectRatio="xMidYMid meet">
<metadata>
Created by potrace 1.16, written by Peter Selinger 2001-2019
</metadata>
<g transform="translate(0.000000,640.000000) scale(0.100000,-0.100000)"
fill="#000000" stroke="none">
<path d="M0 6038 c1 -329 2 -363 18 -375 15 -13 15 -14 1 -10 -13 4 -17 -2
-17 -34 -1 -39 -1 -39 39 -39 40 0 44 6 39 53 -1 9 2 17 7 16 33 -8 73 22 171
126 41 45 125 115 137 115 4 0 52 34 107 75 54 41 103 75 109 75 5 0 9 4 9 8
0 5 12 15 28 23 15 8 33 20 40 27 7 6 19 12 25 12 7 0 24 11 40 24 15 13 46
27 70 31 l42 8 -35 7 c-19 5 -38 6 -42 4 -5 -3 -8 0 -8 5 0 6 -8 11 -17 10
-11 0 -13 -3 -5 -6 6 -2 12 -9 12 -14 0 -14 -38 -11 -43 4 -2 6 -8 8 -13 4 -5
-4 -2 -12 5 -17 27 -16 4 -40 -38 -40 -31 0 -39 -3 -35 -14 8 -20 -10 -28 -38
-17 -17 7 -18 10 -5 10 21 1 23 21 2 21 -18 0 -18 5 -5 31 9 16 7 21 -17 30
-22 8 -24 12 -13 19 8 6 11 10 5 10 -5 1 1 6 14 11 19 8 21 12 11 24 -15 18
-1 19 23 1 21 -16 22 -26 1 -26 -8 0 -12 -5 -9 -11 4 -6 13 -8 21 -5 17 7 25
-6 14 -24 -6 -9 -3 -18 8 -27 36 -27 57 -9 26 22 -13 12 -14 19 -4 30 10 12 9
15 -4 15 -10 0 -14 5 -11 10 10 16 47 12 60 -6 11 -16 12 -16 18 0 5 13 -2 21
-28 32 -37 15 -48 30 -15 19 21 -7 28 10 8 18 -8 3 -6 6 5 6 10 1 17 -6 17
-18 0 -14 9 -21 31 -26 40 -9 47 -1 15 20 -22 15 -24 19 -11 32 8 8 15 25 15
39 0 29 5 30 32 4 22 -20 85 -29 73 -10 -3 6 -14 10 -23 10 -9 0 -25 7 -35 14
-18 14 -18 14 0 19 10 3 -44 5 -121 6 -122 1 -137 -1 -126 -14 7 -8 16 -13 20
-10 4 2 4 -10 1 -28 -5 -22 -13 -33 -28 -35 -25 -4 -57 37 -48 60 10 25 -23
28 -283 28 l-242 0 0 -362z"/>
<path d="M1144 6383 c0 -10 15 -32 31 -48 27 -27 37 -31 95 -33 36 -1 86 -4
111 -7 36 -5 48 -3 52 9 8 20 49 20 90 2 41 -18 136 -40 144 -32 3 3 14 1 24
-5 13 -6 19 -6 19 0 0 6 -12 13 -27 16 -16 3 -68 18 -118 34 -75 24 -91 33
-95 52 -6 24 -7 24 -167 27 -149 2 -161 1 -159 -15z"/>
<path d="M1500 6393 c8 -2 25 -10 38 -16 16 -8 25 -8 30 -1 12 18 72 -4 82
-30 4 -13 15 -26 23 -29 15 -5 40 6 37 17 0 3 3 13 8 22 7 13 17 12 78 -12 38
-15 74 -30 79 -34 6 -4 23 -10 39 -14 23 -6 27 -9 15 -17 -7 -5 -9 -9 -4 -10
15 -2 27 -5 53 -14 27 -9 30 -29 2 -22 -12 3 -18 1 -14 -5 4 -6 24 -7 50 -3
37 5 43 4 38 -9 -4 -10 -1 -16 9 -16 11 0 27 -19 27 -33 0 -1 -19 -2 -42 -2
-33 0 -45 -5 -53 -22 -11 -21 -12 -21 -38 12 -29 37 -63 39 -54 4 4 -15 0 -19
-21 -19 -29 0 -20 -15 13 -22 11 -2 19 -10 17 -17 -2 -9 3 -8 19 3 28 19 64 4
81 -36 8 -17 27 -35 46 -44 30 -12 37 -11 67 5 19 10 32 21 29 24 -3 3 4 3 15
0 17 -4 20 -2 15 11 -6 17 11 23 21 7 3 -5 31 -13 63 -16 31 -4 66 -13 77 -20
19 -12 20 -10 19 69 0 45 3 92 7 106 9 32 11 22 11 -78 0 -54 4 -85 11 -87 7
-2 29 -6 50 -9 27 -3 36 -2 31 7 -5 9 -4 9 6 0 30 -28 -19 -41 -72 -18 -10 4
-18 3 -18 -2 0 -11 58 -33 88 -33 11 0 24 -5 27 -10 4 -6 10 -8 14 -6 15 10
81 -15 91 -34 6 -11 7 -20 3 -20 -4 0 3 -7 15 -16 22 -15 36 -13 38 7 1 5 3
12 4 17 1 4 3 14 4 22 0 8 7 14 15 12 15 -3 41 16 41 29 0 5 -7 9 -16 9 -18 0
-114 52 -114 61 0 4 9 9 20 12 10 3 19 2 18 -2 -2 -20 3 -31 13 -26 6 4 8 13
5 21 -3 8 -1 14 4 14 6 0 10 -4 10 -9 0 -5 11 -12 24 -15 13 -3 31 -17 40 -31
9 -14 33 -32 53 -40 33 -14 37 -14 49 2 7 10 14 14 14 9 0 -5 8 -2 17 5 11 10
14 10 9 2 -4 -7 -2 -13 3 -13 6 0 11 6 11 14 0 8 7 21 15 30 14 13 13 16 -7
30 -12 9 -28 16 -35 16 -7 0 -13 5 -13 10 0 6 13 4 30 -5 42 -22 47 -20 80 32
22 34 31 42 35 30 4 -8 0 -26 -8 -39 -8 -13 -18 -36 -22 -53 -7 -32 -41 -75
-59 -75 -15 0 -72 -124 -67 -145 2 -5 -1 -7 -4 -3 -4 4 -17 -4 -27 -18 -15
-18 -19 -34 -15 -62 3 -20 3 -29 0 -19 -4 14 -8 16 -19 6 -21 -18 -29 -3 -12
23 22 33 11 54 -13 26 -13 -17 -21 -20 -27 -11 -4 7 -17 10 -29 7 -19 -5 -20
-8 -8 -20 7 -8 21 -14 29 -14 23 0 20 -17 -3 -23 -15 -4 -18 -11 -14 -27 5
-18 3 -21 -8 -15 -12 7 -12 6 -1 -8 10 -12 11 -21 3 -34 -10 -17 -10 -17 -11
1 0 12 -5 16 -15 13 -19 -8 -31 11 -16 26 16 16 14 37 -4 31 -9 -4 -15 0 -15
10 0 21 -6 20 -32 -4 -19 -17 -19 -20 -5 -26 9 -3 14 -10 11 -15 -3 -5 -10 -6
-16 -3 -7 5 -9 0 -6 -13 3 -12 2 -27 -3 -34 -7 -11 -9 -11 -9 2 0 16 -54 49
-80 49 -6 0 -8 4 -5 10 4 6 -1 7 -11 3 -15 -5 -14 -7 2 -16 19 -10 63 -54 64
-62 0 -3 0 -9 0 -15 0 -5 6 -10 13 -10 25 0 52 -34 54 -67 2 -23 -2 -33 -12
-33 -8 0 -15 6 -15 14 0 8 -5 16 -10 18 -6 2 -12 14 -15 27 -5 30 -15 40 -15
17 0 -10 -5 -14 -11 -11 -5 4 -20 8 -32 10 -12 1 -34 6 -48 10 -17 4 -30 2
-34 -6 -6 -9 -2 -11 12 -7 16 4 19 2 16 -13 -3 -11 -1 -25 5 -32 13 -16 5 -29
-28 -44 l-25 -12 27 0 c15 -1 33 -8 41 -16 10 -10 17 -11 19 -4 3 8 11 5 22
-6 10 -11 21 -14 24 -9 4 6 16 10 28 10 16 0 19 -5 16 -23 -5 -26 -17 -30 -26
-8 -4 11 -10 13 -23 6 -28 -15 -104 -32 -150 -35 -51 -2 -70 -16 -23 -16 42 0
30 -14 -13 -16 -18 0 -47 -4 -66 -8 -26 -6 -32 -5 -29 5 3 9 15 13 31 11 15
-2 27 1 27 7 0 13 -47 15 -54 2 -4 -5 -27 -9 -53 -9 -32 0 -42 3 -32 9 8 5 26
6 41 3 20 -4 29 0 38 16 13 24 4 43 -10 20 -7 -11 -11 -11 -24 -1 -13 11 -16
11 -16 0 -1 -11 -3 -11 -13 1 -8 11 -22 14 -47 10 -19 -3 -48 -2 -64 2 -23 6
-27 5 -18 -4 18 -18 15 -28 -9 -28 -11 0 -17 -5 -14 -10 4 -6 21 -8 41 -4 22
4 34 2 34 -5 0 -6 -7 -11 -15 -11 -8 0 -15 -4 -15 -9 0 -6 12 -6 31 1 32 11
57 0 45 -21 -11 -17 -26 -13 -20 4 7 18 3 19 -29 2 -20 -10 -23 -17 -15 -31 7
-12 13 -14 22 -7 6 6 25 8 41 6 17 -2 39 -4 50 -5 12 0 5 -6 -20 -15 -23 -8
-43 -11 -49 -5 -5 5 -15 2 -25 -7 -21 -21 -15 -26 31 -28 25 -1 43 4 54 16 9
10 22 15 30 12 8 -3 14 1 14 8 0 7 2 10 5 7 11 -11 -7 -37 -21 -31 -12 4 -14
0 -9 -20 5 -19 2 -28 -13 -36 -11 -6 -22 -8 -26 -6 -3 3 -4 2 -1 -1 2 -4 -3
-21 -12 -38 -10 -17 -17 -34 -18 -38 0 -3 -3 -10 -7 -14 -5 -4 -8 -17 -8 -28
1 -12 12 6 26 39 13 33 31 63 39 67 8 5 22 16 31 26 13 12 19 13 22 4 2 -7 9
-9 15 -5 7 3 8 2 4 -3 -5 -5 -13 -10 -18 -10 -5 -1 -13 -2 -18 -3 -5 0 -11
-12 -13 -26 -4 -20 -3 -23 8 -14 8 6 11 15 8 20 -3 5 2 6 10 3 9 -3 16 -8 16
-10 0 -11 -78 -93 -83 -88 -2 3 -7 -2 -11 -11 -4 -11 -2 -14 7 -9 6 4 -5 -10
-26 -30 -48 -47 -72 -49 -50 -4 11 21 13 33 6 35 -6 2 -9 12 -6 23 3 12 -4 24
-21 35 -23 15 -32 16 -71 5 -25 -7 -45 -17 -45 -21 0 -5 -9 -9 -20 -9 -11 0
-20 -4 -20 -10 0 -5 -7 -10 -15 -10 -8 0 -15 -7 -15 -15 0 -9 -7 -18 -15 -21
-8 -4 -12 -10 -9 -16 3 -5 -2 -16 -12 -23 -18 -13 -18 -14 1 -9 15 3 24 -4 37
-33 28 -64 31 -83 15 -83 -8 0 -18 -7 -21 -16 -9 -22 -8 -24 9 -18 9 4 15 0
15 -9 0 -16 53 -31 58 -16 2 5 17 9 32 9 18 0 35 8 44 22 15 21 16 21 16 3 0
-16 5 -14 31 14 35 38 45 36 28 -5 -7 -16 -11 -38 -10 -49 2 -13 -14 -35 -50
-67 -52 -45 -80 -58 -46 -20 27 30 21 40 -20 32 -21 -3 -37 -11 -36 -18 2 -6
-1 -22 -7 -36 -9 -24 6 -86 21 -86 4 0 14 15 22 33 9 17 29 45 46 61 31 29 31
29 31 7 0 -20 2 -21 15 -11 14 11 13 14 -1 25 -16 11 -15 12 3 17 34 9 24 -52
-15 -90 -36 -35 -39 -47 -16 -56 22 -9 24 -8 24 9 0 8 5 15 10 15 6 0 10 8 10
19 0 10 10 31 22 46 16 21 19 30 10 33 -10 3 -9 9 4 23 9 10 21 16 25 13 12
-7 89 73 89 92 0 8 -4 14 -10 14 -5 0 -10 -4 -10 -10 0 -5 -4 -10 -10 -10 -15
0 -50 -33 -44 -42 3 -4 0 -8 -7 -8 -7 0 -9 9 -5 23 3 12 6 25 6 30 0 4 6 7 13
7 7 0 29 18 47 40 36 43 38 44 60 30 12 -7 12 -12 2 -22 -10 -10 -14 -10 -21
0 -7 11 -10 10 -15 -3 -9 -25 -8 -27 13 -20 26 8 35 -9 20 -37 -11 -21 -11
-22 5 -9 9 8 26 28 38 44 l21 29 -23 -7 -22 -7 18 31 c10 17 26 34 36 37 24 7
88 73 88 89 0 7 11 23 25 36 13 13 25 28 25 33 0 14 46 46 120 83 43 22 70 42
70 52 1 38 130 147 180 151 26 3 85 31 85 42 0 13 9 13 77 2 26 -4 44 -1 60
10 12 9 17 16 10 16 -6 0 -12 5 -12 11 0 7 11 9 30 6 31 -7 42 6 15 17 -23 9
-18 25 7 18 14 -3 19 -1 14 6 -5 8 -2 10 9 6 9 -4 24 1 35 11 18 16 20 16 26
1 9 -24 23 -19 16 7 -5 19 -3 19 21 -8 14 -16 27 -24 27 -17 0 7 5 10 10 7 16
-10 12 11 -5 25 -8 7 -15 17 -15 23 0 6 11 0 25 -13 13 -12 35 -24 48 -25 13
-2 33 -9 45 -16 16 -10 26 -10 46 -1 16 7 26 8 28 1 2 -6 18 -12 35 -13 27 -2
30 0 22 15 -12 22 -12 32 0 25 5 -4 12 0 14 6 3 8 6 6 6 -4 1 -11 9 -18 21
-18 19 0 19 1 -1 35 -16 26 -17 34 -6 30 8 -4 19 -17 25 -31 7 -13 18 -24 27
-24 8 0 15 -4 15 -10 0 -5 -8 -7 -17 -3 -10 3 -15 3 -11 -2 7 -8 72 -24 119
-29 14 -1 36 -10 50 -19 27 -19 39 -21 39 -7 0 6 -6 10 -14 10 -18 0 -106 97
-106 117 0 10 8 5 22 -13 36 -46 60 -68 106 -97 41 -27 48 -25 36 8 -5 13 -9
14 -15 4 -4 -8 -12 -10 -16 -5 -4 5 -2 11 5 13 6 3 10 10 6 16 -3 7 3 2 14
-10 20 -23 42 -30 42 -14 0 4 -11 20 -24 34 -14 15 -27 37 -31 49 l-7 23 17
-23 c10 -14 23 -21 33 -18 19 6 59 -20 49 -31 -4 -3 1 -11 11 -17 10 -6 47
-30 82 -54 35 -23 65 -40 67 -38 2 2 -20 26 -49 54 -31 29 -46 50 -36 48 10
-1 21 -5 24 -9 4 -4 15 -7 25 -7 13 0 16 -5 12 -17 -5 -12 -2 -15 10 -10 8 3
17 2 19 -2 2 -5 14 -12 27 -16 21 -6 23 -5 18 16 -3 13 -9 38 -12 54 -4 25 -4
26 4 9 5 -12 15 -25 22 -30 8 -4 10 -3 5 4 -4 7 -1 12 8 12 18 0 21 -16 6 -25
-5 -3 -10 -11 -10 -16 0 -6 5 -7 10 -4 6 3 13 -1 16 -9 8 -20 24 -21 24 -1 0
22 16 18 37 -9 10 -13 29 -27 43 -31 19 -5 21 -4 10 4 -13 9 -13 11 1 11 8 0
28 -13 43 -29 16 -16 34 -27 41 -25 8 3 16 -5 21 -18 6 -20 8 -20 13 -6 6 16
9 16 34 3 20 -10 27 -11 27 -1 0 6 -5 17 -11 23 -7 7 -8 17 -1 28 8 15 11 13
20 -14 6 -18 22 -35 35 -40 14 -6 27 -16 30 -23 4 -9 8 -6 12 9 4 13 12 20 21
16 8 -3 14 1 15 8 0 8 7 1 14 -16 8 -16 12 -37 9 -46 -3 -12 2 -16 20 -16 14
0 31 -7 40 -15 9 -9 31 -14 60 -13 29 1 50 -3 57 -11 6 -8 21 -14 33 -14 40 0
66 -12 66 -31 0 -23 16 -33 24 -14 8 23 25 18 36 -10 5 -14 16 -25 23 -25 8 0
28 -7 45 -16 18 -8 44 -17 59 -18 35 -4 41 -23 11 -35 -23 -10 -23 -10 5 -10
21 -1 27 4 27 19 0 25 -1 25 50 -4 25 -14 36 -26 29 -28 -18 -6 43 -68 66 -68
9 0 27 -11 41 -25 14 -14 31 -25 39 -25 8 0 15 -4 15 -10 0 -5 10 -10 23 -10
12 0 29 -5 37 -10 11 -7 6 -10 -20 -10 l-35 0 35 -17 c19 -10 37 -21 38 -25 2
-5 17 -15 33 -23 20 -11 29 -23 29 -41 0 -17 7 -27 24 -33 26 -11 42 -51 23
-63 -6 -4 -8 -11 -3 -15 5 -4 11 -2 13 5 3 6 8 12 13 12 13 0 18 -36 8 -54 -6
-12 -5 -16 6 -16 8 0 17 8 19 18 3 12 5 10 6 -7 1 -16 5 -21 16 -17 19 7 19 6
-1 -32 -20 -40 -28 -41 -22 -2 3 17 1 30 -3 30 -4 0 -9 -19 -11 -42 -5 -39 -2
-46 34 -81 22 -22 45 -36 53 -33 9 3 12 0 8 -10 -3 -7 -12 -14 -20 -14 -8 0
-11 -4 -8 -10 3 -5 17 -10 31 -10 23 0 25 2 19 40 -6 39 9 58 18 23 2 -10 3
-4 0 13 -9 78 33 21 47 -63 4 -29 3 -43 -4 -43 -6 0 -5 -4 3 -9 20 -13 25 -71
6 -71 -8 0 -15 -4 -15 -9 0 -5 8 -8 18 -7 12 1 16 -5 15 -21 -2 -13 2 -23 7
-23 15 0 12 -21 -7 -42 -15 -17 -15 -20 5 -41 18 -19 22 -35 22 -95 0 -47 -4
-72 -11 -72 -7 0 -9 11 -6 29 4 16 2 31 -3 33 -5 2 -10 22 -12 45 -3 23 -9 47
-14 55 -6 7 -10 34 -9 61 0 26 -3 47 -7 47 -5 0 -8 7 -8 15 0 21 -40 19 -56
-3 -12 -15 -13 -14 -14 11 0 15 -5 27 -10 27 -6 0 -5 6 2 14 11 12 14 12 21 0
12 -20 27 -7 27 23 0 24 -2 25 -37 18 -42 -8 -57 -23 -42 -42 13 -15 3 -33
-17 -33 -10 0 -13 6 -9 19 3 10 1 30 -5 45 -10 26 -9 26 30 20 22 -4 40 -4 40
-1 0 8 -60 37 -77 37 -7 0 -13 9 -13 20 0 14 5 18 18 13 16 -7 16 -6 -1 11 -9
10 -22 26 -27 37 -6 10 -17 19 -25 19 -8 0 -15 5 -15 10 0 6 5 10 12 10 8 0 9
3 2 10 -6 6 -18 8 -26 5 -20 -8 -33 -54 -19 -68 8 -8 11 -4 11 13 0 17 3 21
11 13 8 -8 7 -17 -3 -32 -16 -26 -33 -27 -43 -3 -7 16 -8 15 -15 -3 -5 -11 -9
-29 -9 -40 0 -18 1 -17 10 3 12 30 27 20 35 -23 8 -42 34 -48 34 -8 0 21 3 24
12 15 6 -6 11 -27 10 -46 -1 -26 5 -39 20 -50 18 -13 19 -18 8 -31 -13 -15 -8
-19 23 -16 11 2 17 -5 17 -18 0 -12 -7 -21 -15 -21 -8 0 -15 5 -15 11 0 7 -11
0 -26 -16 -24 -26 -26 -51 -2 -27 19 19 24 15 38 -28 7 -21 20 -41 29 -43 10
-3 8 -5 -7 -6 -12 0 -25 6 -28 14 -9 23 -22 18 -19 -7 4 -37 5 -39 13 -35 4 2
15 -4 25 -15 16 -17 16 -18 -2 -18 -11 0 -22 -6 -24 -12 -4 -10 -7 -10 -14 -1
-5 7 -14 9 -22 4 -9 -6 -6 -13 13 -29 14 -11 26 -25 26 -32 0 -6 3 -9 8 -7 4
3 16 1 27 -4 15 -7 12 -8 -15 -6 -34 2 -35 1 -38 -37 -2 -24 2 -43 10 -48 10
-8 9 -9 -4 -5 -23 8 -29 -2 -16 -26 8 -16 7 -23 -6 -32 -18 -13 -23 -95 -6
-95 6 0 10 18 10 40 0 22 4 40 8 40 11 0 36 -109 28 -117 -3 -4 -6 1 -6 10 0
20 -13 21 -41 6 -11 -5 -17 -15 -13 -21 5 -7 -2 -9 -20 -4 -25 6 -27 4 -24
-21 2 -22 -2 -29 -18 -31 -30 -4 -51 24 -36 48 7 12 8 21 2 25 -6 3 -15 -6
-21 -22 -7 -19 -7 -29 0 -31 6 -2 11 -8 11 -13 0 -15 -29 2 -35 22 -4 10 -15
19 -26 19 -11 0 -19 7 -20 18 0 13 -3 12 -11 -6 -7 -13 -17 -21 -25 -18 -21 8
-29 -25 -9 -36 9 -5 14 -13 11 -19 -4 -5 3 -9 14 -9 12 0 21 -4 21 -9 0 -5 9
-13 20 -16 11 -3 20 -13 20 -20 0 -20 21 -30 31 -14 6 10 9 11 9 2 0 -15 46
-18 54 -4 3 5 -8 11 -24 15 -44 8 -37 26 10 26 33 0 40 -4 40 -19 0 -11 9 -21
22 -24 34 -9 12 -22 -40 -23 -26 -1 -67 -9 -91 -17 -40 -14 -47 -14 -75 0 -32
17 -128 21 -214 11 -23 -3 -45 -1 -48 3 -3 5 -23 9 -46 9 -31 0 -41 -4 -45
-20 -8 -28 -33 -25 -72 10 -21 20 -31 36 -27 47 5 12 3 13 -7 5 -24 -21 -50
43 -55 135 -5 86 -23 107 -23 25 1 -64 -3 -95 -12 -109 -5 -8 -4 -13 2 -13 6
0 11 -14 11 -31 0 -27 -2 -30 -16 -18 -13 11 -14 9 -8 -17 4 -16 11 -35 17
-41 6 -9 5 -13 -4 -13 -11 0 -11 -2 1 -10 13 -8 13 -11 1 -19 -8 -5 -10 -14
-5 -22 12 -20 14 -40 3 -33 -5 3 -9 -7 -9 -22 0 -22 -2 -25 -15 -14 -13 11
-15 8 -15 -13 0 -14 -6 -27 -12 -30 -13 -4 35 -57 51 -57 5 0 11 -11 13 -25 3
-14 1 -25 -3 -25 -5 0 -9 5 -9 10 0 6 -4 10 -10 10 -18 0 -10 -29 10 -35 23
-7 27 -40 5 -49 -9 -3 -15 -18 -15 -37 0 -18 -7 -37 -16 -44 -15 -11 -15 -14
-1 -36 8 -13 14 -37 12 -54 -2 -16 -1 -34 3 -40 3 -5 5 -22 3 -37 -1 -14 2
-29 8 -33 6 -3 11 -16 11 -27 0 -11 8 -26 17 -33 15 -11 15 -15 4 -29 -11 -13
-11 -16 1 -16 15 0 46 -28 47 -43 1 -4 14 -34 31 -66 28 -56 29 -61 15 -88
-17 -31 -20 -104 -6 -118 15 -16 -31 -65 -75 -80 -21 -8 -31 -14 -21 -15 16 0
16 -3 -5 -30 -12 -16 -28 -30 -35 -30 -8 0 -12 -4 -9 -8 3 -5 -9 -6 -26 -4
-21 3 -33 0 -40 -11 -5 -9 -14 -14 -21 -12 -16 6 -103 -37 -99 -49 5 -12 -19
-26 -45 -26 -20 0 -21 -3 -13 -25 9 -23 7 -25 -18 -24 -15 0 -21 3 -14 6 6 2
12 9 12 15 0 6 -7 8 -14 5 -10 -4 -13 -1 -10 7 5 13 -35 46 -56 46 -7 0 -44
19 -83 42 -65 38 -79 42 -149 45 -72 2 -78 1 -97 -23 -11 -14 -25 -23 -31 -19
-5 3 -10 -1 -10 -10 0 -30 186 -83 224 -63 14 8 21 7 27 -5 6 -9 17 -13 29
-10 11 3 31 2 45 -1 22 -6 23 -9 13 -26 -7 -10 -26 -21 -43 -23 l-30 -3 31 -8
c30 -8 31 -10 30 -62 0 -53 -8 -69 -20 -39 -3 8 -13 15 -23 15 -15 0 -13 -5 9
-25 28 -25 58 -33 58 -15 0 6 5 10 11 10 5 0 7 -5 4 -10 -3 -6 0 -12 7 -15 14
-6 20 -65 7 -65 -5 0 -9 5 -9 10 0 13 -37 13 -45 -1 -4 -6 3 -13 15 -16 21 -6
20 -7 -10 -38 l-31 -32 25 -27 c13 -15 33 -26 43 -24 12 2 18 -3 17 -15 -1
-12 5 -17 22 -17 27 0 28 3 13 32 -9 16 -8 23 2 29 19 12 32 11 24 -1 -3 -5 4
-10 15 -10 16 0 20 -5 16 -15 -3 -9 0 -15 9 -15 9 0 12 6 9 15 -4 8 -1 15 5
15 6 0 11 5 11 10 0 6 -8 10 -18 10 -21 0 -42 18 -42 37 0 7 6 13 14 13 8 0
16 7 20 15 3 8 13 15 21 15 9 0 13 -4 10 -10 -3 -5 -1 -10 4 -10 6 0 11 5 11
10 0 6 7 10 15 10 11 0 12 -6 6 -22 -5 -13 -16 -22 -25 -20 -9 2 -16 -2 -16
-8 0 -13 36 -13 62 1 19 10 20 9 14 -15 -6 -26 8 -37 17 -13 4 9 7 9 17 0 11
-10 9 -14 -11 -22 -24 -10 -24 -10 6 -11 l30 -2 -30 -13 -30 -14 44 -1 44 0
-41 -40 c-31 -31 -48 -40 -75 -40 -19 0 -48 -7 -63 -15 -18 -9 -43 -13 -66
-10 -32 5 -37 4 -31 -11 6 -15 4 -15 -20 1 -18 11 -27 13 -27 5 0 -6 -12 -11
-27 -10 -16 1 -30 1 -33 1 -25 -8 -108 -7 -117 1 -7 5 -18 6 -25 1 -7 -4 -48
-6 -90 -4 -61 2 -78 0 -78 -10 0 -12 -2 -12 -9 0 -7 10 -13 11 -30 2 -16 -9
-27 -8 -48 2 -24 12 -37 12 -88 0 -33 -7 -69 -15 -80 -16 -11 -1 -22 -5 -25
-8 -3 -4 -20 -4 -37 -2 -28 4 -33 10 -33 32 0 15 -8 31 -20 38 -16 11 -21 10
-30 -7 -11 -21 -40 -28 -40 -10 0 6 7 10 15 10 8 0 15 5 15 11 0 7 -11 8 -30
4 -25 -5 -29 -4 -24 9 7 19 -12 22 -23 3 -4 -7 -21 -21 -38 -31 -46 -29 -88
-73 -81 -85 4 -6 0 -31 -9 -57 -8 -26 -13 -55 -10 -65 4 -11 2 -19 -4 -19 -6
0 -11 -20 -11 -45 0 -37 3 -45 19 -45 13 0 19 7 19 27 0 28 28 57 46 46 21
-13 51 -10 74 8 13 10 30 15 39 12 11 -4 14 -2 9 5 -9 16 11 52 29 52 8 0 15
5 15 10 0 6 9 10 21 10 11 0 18 -4 15 -9 -4 -5 3 -7 14 -4 12 3 20 0 20 -7 0
-7 7 -10 16 -6 8 3 27 0 42 -8 34 -17 179 -36 276 -36 16 0 35 -5 41 -10 6 -5
30 -10 53 -11 23 -2 42 -6 42 -9 0 -3 24 -4 54 -3 30 2 57 -1 61 -7 3 -5 12
-10 18 -10 7 0 6 4 -3 11 -11 8 -8 9 15 4 16 -4 33 -12 37 -18 5 -8 11 -7 22
2 9 7 24 10 33 6 19 -7 29 -4 26 6 -1 4 17 7 40 7 23 0 53 1 67 2 62 2 79 -1
73 -16 -3 -10 2 -14 18 -14 20 0 21 -2 9 -10 -13 -9 -13 -12 3 -21 21 -12 23
-33 2 -25 -8 3 -15 1 -15 -4 0 -6 5 -10 10 -10 14 0 12 -22 -4 -43 -9 -11 -31
-20 -58 -22 -23 -3 -56 -7 -73 -11 -16 -3 -59 -8 -95 -11 -36 -2 -75 -5 -87
-6 -11 -1 -19 -5 -17 -9 2 -4 0 -9 -5 -13 -5 -3 -14 2 -19 11 -12 22 -32 9
-32 -22 0 -25 -6 -27 -53 -24 -15 1 -34 -3 -42 -10 -9 -7 -15 -8 -20 0 -3 5 2
10 11 10 11 0 14 3 8 9 -5 5 -25 6 -44 2 -23 -4 -31 -9 -22 -15 10 -6 10 -11
1 -22 -9 -11 -8 -14 7 -14 13 0 15 -3 7 -11 -19 -19 -41 -3 -38 26 3 25 2 26
-14 11 -10 -9 -27 -16 -39 -16 -32 0 -27 -19 8 -34 17 -7 27 -15 23 -19 -3 -4
-2 -7 4 -7 6 0 14 -10 17 -22 l7 -23 9 22 c9 22 48 49 57 39 3 -3 -7 -16 -22
-30 -23 -21 -26 -28 -15 -41 7 -8 19 -15 27 -15 7 0 16 -7 20 -16 4 -11 8 -12
13 -4 4 7 13 11 19 9 6 -2 0 -17 -15 -34 -20 -22 -25 -25 -20 -10 3 11 1 27
-4 35 -8 12 -10 11 -10 -7 0 -24 -16 -31 -22 -11 -3 9 -6 9 -12 -1 -5 -8 -1
-14 14 -18 11 -3 19 -11 17 -17 -2 -6 5 -19 15 -28 12 -12 18 -14 19 -5 0 6 5
2 11 -10 12 -25 23 -29 33 -13 10 17 25 11 25 -9 0 -11 9 -21 23 -24 21 -6 21
-6 3 8 -14 11 -16 15 -5 15 12 0 12 2 0 9 -11 7 -10 11 6 19 14 8 29 7 54 -1
42 -15 84 -44 70 -48 -6 -3 -7 -10 -2 -18 11 -17 34 -4 27 15 -3 8 1 14 8 14
8 0 17 -8 21 -17 6 -17 8 -17 21 2 l15 20 16 -20 c11 -14 17 -16 20 -8 3 7 13
13 23 13 17 0 17 -2 4 -30 -9 -16 -19 -32 -25 -35 -15 -10 -10 -28 6 -21 9 3
15 0 15 -8 0 -8 -4 -16 -9 -18 -14 -5 -24 -48 -11 -48 7 0 8 -6 0 -19 -14 -27
-13 -28 15 -35 14 -4 25 -13 25 -20 0 -9 -7 -12 -20 -9 -11 3 -28 2 -37 -2
-17 -7 -16 -8 2 -15 11 -5 35 -9 53 -9 32 -1 44 -17 19 -27 -8 -3 -14 -11 -14
-18 0 -8 6 -12 14 -9 7 3 13 0 13 -6 0 -6 -4 -11 -10 -11 -17 0 -11 -18 8 -23
9 -2 5 -4 -9 -3 -25 2 -25 1 -13 -34 7 -19 9 -38 6 -41 -13 -12 -113 -17 -109
-5 2 6 13 12 25 14 12 2 20 8 17 13 -15 24 -94 -1 -130 -41 -10 -11 -24 -20
-31 -20 -18 0 -31 -53 -16 -58 14 -4 15 -51 2 -72 -7 -12 -11 -8 -16 18 -6 29
-24 46 -24 22 0 -5 -5 -10 -11 -10 -6 0 -8 7 -5 15 3 9 -1 18 -9 21 -21 9 -18
21 6 27 13 3 18 10 14 17 -5 8 -15 4 -33 -12 -14 -13 -22 -18 -19 -12 8 14
-14 24 -49 24 -36 0 -127 -88 -120 -116 4 -13 0 -27 -8 -34 -12 -9 -18 -6 -31
14 -17 25 -17 25 -38 6 -26 -25 -59 -27 -55 -4 2 10 -5 18 -17 20 -29 5 -47
-9 -39 -30 5 -14 9 -15 15 -5 12 20 22 3 15 -25 -4 -17 -14 -26 -33 -28 -14
-2 -28 -10 -31 -18 -4 -12 -2 -13 9 -3 14 14 30 17 28 6 -6 -40 15 -43 33 -5
7 15 23 28 36 30 30 5 28 -16 -3 -30 -25 -11 -34 -28 -14 -28 5 0 7 -5 3 -12
-5 -8 2 -9 25 -5 23 5 31 3 29 -5 -3 -7 -22 -14 -43 -16 -32 -3 -37 -1 -31 13
5 13 2 15 -15 10 -11 -4 -26 -1 -34 5 -8 6 -19 9 -25 5 -5 -3 -19 0 -30 8
l-21 14 21 6 c18 5 19 8 8 34 -7 15 -14 30 -16 33 -6 8 -22 -25 -22 -47 0 -18
-6 -23 -25 -23 -15 0 -25 6 -25 15 0 8 -11 17 -25 21 -14 3 -25 10 -25 15 0 5
-12 9 -27 9 -25 -1 -26 -2 -11 -13 11 -9 14 -18 8 -27 -7 -12 -10 -11 -16 3
-4 13 -15 16 -39 14 -17 -2 -37 -7 -44 -11 -7 -5 -28 -8 -48 -8 -26 0 -32 -3
-22 -10 10 -7 8 -8 -9 -5 -19 4 -21 3 -12 -8 12 -15 6 -35 -11 -35 -6 0 -8 4
-5 9 3 4 -6 6 -19 3 -31 -6 -33 -22 -2 -23 12 0 16 -3 9 -6 -6 -2 -10 -9 -6
-14 7 -12 -8 -11 -40 1 -18 6 -26 6 -26 -1 0 -7 -11 -8 -30 -4 -20 5 -30 3
-30 -6 0 -8 14 -10 48 -6 40 6 45 5 30 -7 -10 -7 -18 -18 -18 -25 0 -6 -12
-11 -27 -12 l-28 -1 25 -7 c16 -5 29 -3 35 5 6 7 24 16 40 19 l30 7 -30 -21
-30 -22 30 7 c16 4 34 6 40 4 5 -2 673 -5 1483 -7 l1472 -3 0 670 c0 642 -1
670 -18 670 -46 0 -289 -98 -374 -150 -29 -18 -69 -42 -88 -53 -19 -11 -61
-39 -93 -63 -31 -24 -61 -44 -65 -44 -8 0 -128 -115 -193 -185 -45 -49 -60
-75 -133 -225 -20 -41 -43 -86 -51 -100 -8 -14 -16 -29 -18 -33 -7 -21 -98 19
-148 65 l-53 48 34 35 c30 31 35 33 50 20 20 -18 37 -19 43 -2 3 8 9 7 19 -6
13 -17 15 -17 37 7 21 23 22 25 4 34 -10 6 -14 14 -10 18 4 4 13 2 19 -4 16
-16 28 -15 28 3 0 26 -68 40 -100 20 -16 -10 29 56 115 170 24 31 83 133 90
154 3 11 12 22 20 25 8 3 15 13 15 22 0 9 8 28 18 42 28 42 124 247 127 272 1
8 7 29 14 45 7 17 17 50 22 75 5 25 13 61 18 80 13 49 18 67 32 135 7 33 20
76 30 96 16 33 22 62 33 174 9 91 28 182 45 220 32 69 69 197 80 273 5 40 18
90 29 110 11 21 23 53 27 72 4 19 16 46 26 59 23 29 25 90 3 117 -15 18 -15
18 -11 -8 2 -16 0 -28 -5 -28 -6 0 -8 18 -4 43 3 23 5 54 5 69 1 15 11 36 23
48 12 11 18 23 14 27 -4 4 -11 1 -16 -7 -5 -8 -11 -12 -14 -10 -10 10 -10 169
0 182 6 7 12 42 13 77 1 36 7 71 13 78 12 15 1 143 -13 143 -5 0 -9 -24 -10
-52 0 -29 -3 -46 -6 -38 -3 8 -11 18 -17 22 -8 6 -8 8 1 8 6 0 10 8 8 18 -14
66 -17 74 -30 69 -15 -6 -26 13 -32 58 -3 16 -10 38 -16 50 -6 11 -10 30 -10
43 3 73 2 70 26 65 18 -5 20 -3 10 8 -7 7 -13 24 -13 37 0 17 -4 22 -14 19
-16 -6 -32 26 -21 42 3 5 1 12 -5 16 -5 3 -10 12 -10 18 0 7 7 4 15 -7 8 -10
19 -15 26 -10 8 4 10 3 5 -4 -6 -10 22 -17 55 -14 3 1 3 -12 1 -27 -2 -16 1
-32 8 -36 8 -5 7 -10 -5 -19 -14 -10 -14 -15 -2 -39 13 -26 15 -26 20 -7 3 12
-1 23 -10 29 -13 7 -12 9 6 14 13 3 21 0 21 -8 0 -8 8 -12 23 -9 12 2 16 2 9
-2 -6 -3 -10 -10 -7 -14 9 -14 79 39 86 65 17 62 -21 103 -83 90 -29 -7 -39
-25 -13 -25 8 0 15 4 15 9 0 4 11 6 25 3 26 -5 34 -27 13 -35 -10 -4 -10 -7 0
-14 15 -11 -9 -36 -46 -48 -26 -8 -44 21 -21 36 11 7 9 9 -6 9 -17 0 -18 2 -5
10 13 9 13 12 -2 24 -10 7 -18 22 -18 32 0 16 -2 17 -11 4 -7 -11 -8 -6 -4 19
5 24 4 31 -4 27 -8 -5 -10 4 -5 32 5 31 0 52 -25 105 -17 36 -31 71 -31 77 0
6 -4 9 -9 5 -6 -3 -10 12 -9 33 0 22 -5 48 -11 60 -6 11 -11 27 -11 34 1 7 10
-5 22 -27 11 -22 26 -43 32 -47 8 -6 7 -11 -3 -17 -9 -6 -6 -8 13 -8 14 0 26
0 26 1 0 0 -7 25 -14 54 -14 52 -14 53 4 37 18 -16 18 -15 14 27 -2 24 -9 53
-15 65 -12 23 -10 31 17 73 l16 25 -20 -22 c-26 -29 -28 -29 -47 8 -20 37 -14
47 11 22 17 -17 18 -17 11 0 -4 10 -7 21 -7 23 0 2 -7 4 -15 4 -8 0 -30 24
-49 53 -36 57 -51 117 -29 117 7 0 13 -5 13 -10 0 -6 10 -8 24 -4 13 3 27 1
30 -5 8 -13 36 -15 36 -2 0 5 -13 14 -30 21 -39 16 -27 34 17 27 33 -6 35 -5
29 18 -4 14 -3 25 1 25 14 0 33 -39 27 -54 -4 -11 6 -18 36 -26 47 -13 67 -6
28 9 -16 6 -31 25 -42 51 -9 22 -23 43 -31 46 -8 4 -15 12 -15 20 0 16 16 19
25 4 3 -5 16 -15 28 -21 21 -11 21 -10 -2 15 -30 32 -27 32 43 1 47 -21 56
-29 51 -45 -5 -16 -1 -19 22 -17 27 2 28 0 27 -43 -1 -29 0 -34 3 -12 6 43 24
40 53 -8 25 -40 40 -50 40 -27 0 7 -18 31 -41 52 -36 36 -39 44 -34 74 4 22 2
37 -6 41 -15 10 -2 31 15 24 8 -3 16 4 19 16 3 14 10 19 17 15 8 -5 10 -1 7
11 -3 11 -9 53 -13 94 -4 41 -11 81 -17 88 -7 9 -4 12 11 12 19 0 112 -27 156
-45 14 -6 17 -5 12 3 -10 17 -67 39 -121 47 -28 5 -45 12 -45 21 0 7 -6 11
-13 8 -8 -3 -20 2 -27 11 -15 19 1 21 33 4 16 -9 22 -9 25 0 6 19 39 12 70
-14 36 -30 46 -32 33 -6 -6 10 -24 24 -41 31 -24 10 -28 15 -19 26 6 8 20 14
30 14 28 0 22 49 -8 56 -19 5 -20 9 -10 25 10 16 9 21 -3 29 -8 5 -23 7 -34 4
-12 -4 -16 -2 -12 5 4 6 4 16 0 22 -4 8 -9 7 -15 -2 -13 -20 -11 -63 3 -77 9
-9 8 -15 -8 -27 -10 -8 -23 -13 -29 -11 -14 4 -19 56 -6 56 6 0 11 11 11 25 0
23 -2 24 -21 15 -11 -7 -18 -18 -15 -25 2 -7 -2 -19 -9 -25 -10 -8 -13 -21 -8
-38 6 -26 6 -26 -35 9 -23 20 -60 44 -82 55 -22 10 -38 24 -36 31 3 6 2 13 -1
16 -3 3 -6 27 -8 52 -2 34 1 48 12 52 17 7 28 -4 38 -34 5 -19 2 -23 -14 -23
-26 0 -27 -8 -3 -26 13 -11 14 -15 4 -22 -10 -7 -10 -11 3 -22 15 -13 16 -12
19 18 4 41 17 60 36 55 21 -6 50 12 50 29 0 6 -6 8 -13 5 -7 -3 -19 4 -25 14
-11 17 -9 21 13 31 29 13 32 30 9 53 -11 11 -20 13 -28 6 -9 -7 -16 -4 -26 9
-18 25 -30 26 -30 3 -1 -14 -4 -12 -15 7 -20 35 -20 60 1 34 15 -19 16 -19 9
1 -4 11 -9 47 -12 80 -2 33 -11 70 -19 83 -22 33 -15 106 10 110 31 6 66 54
55 74 -12 22 -29 24 -29 4 0 -8 -11 -27 -26 -43 -21 -22 -28 -25 -43 -16 -12
7 -40 10 -75 6 l-56 -6 0 45 c0 24 -6 50 -12 56 -10 10 -10 17 0 32 16 27 15
72 -3 96 -8 10 -15 34 -15 52 0 21 -4 31 -11 26 -6 -3 -9 -14 -6 -24 3 -13 0
-17 -9 -13 -10 4 -12 0 -8 -11 3 -9 1 -16 -5 -16 -6 0 -11 -7 -11 -15 0 -8 -8
-15 -17 -15 -16 -1 -16 -2 -2 -13 9 -7 16 -19 16 -27 0 -8 4 -23 8 -33 7 -16
4 -17 -21 -11 -35 8 -43 14 -21 14 10 0 17 5 17 10 0 6 -10 10 -21 10 -19 0
-20 2 -8 17 12 16 11 15 -15 -1 l-29 -19 31 56 c18 31 32 67 32 79 0 17 3 19
12 10 19 -19 28 -14 28 13 0 19 5 25 21 25 11 0 17 5 14 10 -3 6 -8 30 -10 55
-3 42 -2 45 20 45 14 0 29 9 35 20 6 11 18 20 26 20 11 0 13 6 9 20 -4 14 -2
20 8 20 8 0 17 11 19 25 5 23 2 25 -28 25 -27 0 -34 -4 -34 -20 0 -11 -4 -20
-9 -20 -5 0 -12 -8 -15 -17 -3 -10 -4 -6 -2 9 2 16 -3 33 -11 39 -16 14 -28 6
-18 -11 10 -17 14 -100 5 -100 -5 0 -10 6 -13 13 -6 16 -6 15 -47 -65 -18 -38
-37 -68 -40 -68 -4 0 -15 8 -24 19 -15 16 -15 19 -1 24 8 4 15 18 15 32 0 15
4 24 9 20 12 -7 44 37 32 45 -4 3 -11 26 -15 52 l-7 48 -180 -1 -179 0 0 -80
c0 -91 6 -96 62 -46 20 17 46 40 57 49 12 10 18 24 15 33 -4 8 -1 15 5 15 14
0 14 -55 1 -81 -6 -10 -35 -35 -66 -54 -33 -22 -52 -40 -48 -47 5 -8 11 -6 19
5 7 10 15 17 19 17 3 0 28 16 55 35 35 25 52 32 57 24 4 -7 3 -9 -4 -5 -5 3
-12 2 -14 -2 -5 -14 -95 -80 -132 -97 -33 -16 -35 -16 -80 16 -25 18 -46 38
-46 43 0 7 3 7 8 0 7 -11 45 -34 56 -34 12 0 27 73 20 98 -4 15 -6 38 -5 52 3
20 1 22 -11 12 -8 -6 -18 -9 -21 -5 -4 3 2 12 13 20 24 17 26 33 5 33 -8 0
-15 -4 -15 -10 0 -5 -7 -10 -15 -10 -8 0 -15 -7 -15 -15 0 -8 -4 -15 -10 -15
-17 0 -11 18 12 34 l22 16 -25 0 c-18 0 -29 -8 -37 -24 -6 -13 -19 -27 -30
-30 -18 -6 -80 18 -74 29 10 21 -9 25 -127 25 -82 0 -131 -4 -133 -11 -2 -7
-12 -7 -31 0 -17 7 -201 10 -512 10 l-484 0 -17 -22 -16 -22 5 23 c8 33 -28
29 -42 -5 l-11 -28 5 28 c5 27 5 27 -44 26 -48 -2 -50 -3 -54 -33 l-4 -31 -1
33 -2 32 -66 0 c-41 0 -63 -4 -59 -10 3 -5 1 -10 -4 -10 -6 0 -11 5 -11 10 0
6 -65 10 -175 10 -191 0 -185 2 -169 -58 5 -16 12 -21 23 -18 15 6 15 5 0 -6
-9 -7 -14 -19 -12 -25 3 -7 0 -13 -6 -13 -6 0 -11 12 -11 27 0 15 -5 41 -12
59 l-11 33 -377 1 -376 0 -11 -27 -11 -28 -1 28 -1 27 -442 -1 c-244 0 -436
-3 -428 -6z m4146 -612 c-3 -5 1 -15 10 -22 13 -11 21 -10 50 6 19 10 37 16
40 12 10 -9 -64 -39 -83 -33 -18 6 -95 -14 -132 -34 -14 -7 -21 -7 -21 0 0 5
-19 -8 -41 -30 -23 -22 -48 -40 -56 -40 -8 0 -13 -5 -11 -12 5 -13 -42 -58
-60 -58 -5 0 -26 -16 -46 -35 -21 -19 -47 -35 -59 -35 -18 0 -12 10 36 55 32
30 62 55 66 55 5 0 11 9 14 19 4 18 80 61 106 61 6 0 11 5 11 11 0 7 -10 9
-27 5 -21 -5 -24 -4 -13 4 8 5 23 10 32 10 9 0 18 6 21 13 3 9 7 9 17 0 10 -9
22 -7 56 12 27 15 44 20 46 13 3 -8 11 -9 24 -3 18 8 18 8 0 13 -15 3 -16 6
-5 13 18 11 32 11 25 0z m-3052 -484 c-27 -15 -149 -137 -137 -137 5 0 35 22
65 49 75 65 118 95 118 81 0 -6 6 -8 13 -5 6 3 4 0 -7 -7 -78 -54 -195 -179
-245 -260 -12 -21 -27 -38 -33 -38 -6 0 -3 11 6 25 9 14 13 25 10 25 -4 0 1 9
11 20 10 11 16 22 13 25 -2 3 -28 -31 -57 -75 -46 -71 -55 -80 -79 -78 -15 2
-32 10 -39 18 -6 8 -13 13 -15 10 -56 -73 -80 -81 -38 -12 11 17 18 32 15 32
-12 0 -75 -43 -75 -52 0 -5 -9 -6 -20 -3 -15 5 -22 0 -30 -21 -13 -33 -23 -26
-15 9 7 27 48 60 77 62 10 1 21 5 25 9 8 7 49 77 79 134 10 17 24 32 33 32 8
0 26 10 39 23 28 25 19 5 -14 -33 -36 -40 -74 -100 -64 -100 5 0 17 14 27 30
9 17 23 30 29 30 7 0 14 6 17 13 2 6 8 9 12 5 4 -4 2 -15 -6 -24 -7 -9 4 -4
26 10 22 16 41 23 43 17 2 -6 8 -11 13 -11 6 0 7 5 4 11 -4 6 3 21 16 35 36
38 17 37 -28 -1 -23 -19 -47 -35 -55 -35 -19 1 84 90 105 90 9 0 17 5 17 11 0
6 7 9 14 6 11 -4 13 -1 9 10 -5 12 -1 14 15 9 26 -9 38 10 15 22 -15 9 -11 13
25 28 23 11 42 22 42 25 0 4 10 5 21 2 20 -6 20 -6 3 -16z m2803 -2397 c31
-11 59 -23 62 -28 11 -15 61 -42 61 -33 0 5 11 11 24 13 23 5 24 2 19 -23 -6
-30 5 -37 25 -17 7 7 12 8 12 2 0 -5 12 -10 28 -11 27 -1 73 -10 102 -20 12
-4 11 -7 -5 -20 -19 -15 -19 -15 8 -9 20 5 27 3 27 -8 0 -8 -6 -17 -12 -20 -7
-3 1 -4 17 -1 17 3 26 2 20 -2 -5 -4 -10 -19 -10 -33 0 -17 -10 -31 -32 -45
-26 -15 -32 -25 -28 -42 4 -18 1 -23 -15 -23 -11 0 -20 -4 -20 -10 0 -5 8 -10
18 -10 16 -1 16 -1 0 -11 -20 -11 -25 -59 -6 -59 7 0 1 -8 -12 -17 -14 -9 -27
-20 -30 -24 -3 -5 -17 -12 -30 -17 l-25 -10 35 -15 c30 -13 32 -15 12 -16 -15
-1 -26 -9 -29 -21 -3 -11 -9 -17 -14 -14 -5 3 -9 -4 -9 -15 0 -10 6 -21 13
-24 8 -3 5 -10 -10 -22 -26 -19 -30 -35 -8 -35 8 0 15 -6 15 -14 0 -9 -7 -12
-20 -9 -11 3 -20 0 -20 -6 0 -6 5 -11 10 -11 6 0 10 -8 10 -17 -1 -17 -1 -17
-14 0 -16 20 -32 22 -40 5 -3 -7 -3 -3 0 9 4 18 1 20 -16 16 -14 -4 -19 -11
-15 -21 3 -8 -2 -23 -11 -33 -11 -12 -13 -19 -5 -19 7 0 9 -5 6 -10 -4 -7 -11
-7 -18 -2 -7 5 -34 15 -60 23 -41 12 -46 15 -31 26 19 14 10 33 -17 33 -14 0
-19 7 -19 25 0 14 -5 25 -10 25 -6 0 -18 13 -29 30 -10 16 -21 27 -25 23 -4
-4 -9 3 -13 15 -3 12 -11 22 -17 22 -12 0 -56 52 -56 67 0 4 -13 21 -29 37
-77 82 -76 80 -73 124 4 53 22 55 22 3 0 -22 4 -42 9 -45 4 -3 6 5 4 17 -2 12
3 38 11 57 8 19 15 29 16 23 0 -7 5 -13 10 -13 13 0 13 46 -1 72 -7 13 -7 18
-1 14 6 -3 14 -2 17 4 4 6 -7 15 -23 21 -17 6 -33 17 -36 26 -9 22 0 28 18 14
10 -8 16 -9 21 -1 3 5 -2 10 -11 10 -29 0 -5 15 27 16 29 2 40 -10 17 -19 -14
-5 21 -22 65 -31 19 -5 27 -13 27 -27 0 -11 5 -17 10 -14 6 4 8 11 5 16 -4 5
3 9 15 9 16 0 21 -5 18 -22 -2 -19 2 -24 30 -26 20 -2 32 -9 32 -18 0 -8 5
-14 10 -14 6 0 10 9 10 20 0 11 7 20 15 20 22 0 18 38 -6 51 -19 10 -20 8 -14
-10 5 -16 2 -21 -13 -21 -10 0 -21 3 -25 6 -10 10 17 44 35 44 9 0 19 4 23 10
3 5 11 7 18 4 8 -3 22 -1 34 3 19 8 19 9 -9 31 -22 19 -28 20 -28 8 0 -10 -9
-16 -22 -16 -21 1 -21 2 -5 11 9 5 17 17 17 25 0 17 -47 37 -67 30 -8 -3 -11
-1 -8 4 3 6 -3 10 -14 10 -12 0 -21 5 -21 10 0 14 13 13 77 -10z m-1038 -1302
c48 -22 51 -25 51 -60 0 -38 0 -38 -42 -38 -24 0 -72 -3 -109 -6 -53 -5 -68
-4 -82 10 -9 10 -17 14 -17 9 0 -4 -35 -6 -77 -3 -71 5 -78 7 -81 27 -3 24 49
84 56 64 2 -6 16 -8 34 -4 20 4 29 2 25 -4 -4 -6 6 -9 22 -8 21 1 28 -2 24
-12 -7 -19 5 -16 30 8 47 45 93 49 166 17z"/>
<path d="M1210 6221 c0 -4 -28 -12 -62 -16 -35 -4 -57 -9 -50 -12 28 -11 9
-20 -33 -15 -31 3 -45 1 -45 -7 0 -8 8 -10 20 -6 23 7 60 -2 60 -16 0 -5 -12
-6 -26 -3 -20 5 -25 3 -22 -7 3 -8 13 -14 23 -14 10 0 20 -6 23 -13 3 -9 -4
-12 -23 -10 -16 2 -30 -2 -32 -9 -6 -16 33 -26 56 -14 29 16 64 14 58 -3 -7
-18 113 -82 138 -73 14 6 15 10 4 23 -16 19 -20 56 -5 51 6 -2 10 -14 9 -26
-3 -21 -2 -21 19 -7 13 9 31 13 46 9 17 -4 23 -2 18 6 -4 6 -15 11 -25 11 -20
0 -37 52 -20 58 5 2 2 17 -6 32 -8 16 -14 35 -13 42 3 12 -36 25 -84 27 -16 0
-28 -3 -28 -8z"/>
<path d="M1575 6213 c-27 -3 -57 -10 -65 -17 -25 -22 -53 -28 -62 -14 -6 10
-8 10 -8 1 0 -18 -45 -16 -60 2 -7 8 -19 15 -27 15 -12 0 -13 -3 -4 -13 6 -8
7 -18 3 -22 -4 -5 -1 -5 6 -1 8 5 12 1 12 -11 0 -10 12 -26 25 -36 24 -17 26
-17 32 -1 4 11 -1 22 -13 31 -18 14 -18 15 4 8 13 -4 22 -2 22 4 0 6 7 8 15 5
8 -4 15 -12 15 -20 0 -17 -17 -18 -23 -1 -3 7 -6 5 -6 -5 -1 -10 4 -18 10 -18
6 0 9 -6 6 -14 -5 -12 37 -52 46 -44 1 2 14 -8 27 -20 29 -27 64 -47 100 -55
28 -6 73 23 69 45 -1 7 1 25 5 41 9 31 39 36 56 10 11 -17 11 -17 6 1 -5 13
-2 17 9 12 8 -3 15 -1 15 4 0 6 -9 10 -21 10 -17 0 -19 4 -13 23 6 21 6 21
-12 5 -17 -14 -23 -15 -50 -3 -18 7 -35 18 -38 24 -11 18 -39 13 -32 -5 5 -12
2 -15 -10 -10 -12 4 -15 2 -11 -9 4 -8 1 -17 -4 -21 -7 -4 -9 4 -7 22 2 24 -1
30 -19 32 -13 2 -23 7 -23 12 0 12 40 17 73 8 24 -6 28 -4 23 8 -3 9 -6 18 -6
20 0 2 -3 3 -7 2 -5 -1 -30 -3 -58 -5z"/>
<path d="M830 6141 c-31 -6 -33 -7 -16 -18 17 -9 14 -12 -23 -18 -35 -6 -41
-10 -39 -28 3 -23 -10 -26 -44 -12 -15 6 -18 2 -18 -19 0 -16 -6 -26 -15 -26
-8 0 -15 -4 -15 -10 0 -5 -3 -10 -7 -9 -14 2 -53 -13 -53 -21 0 -10 -47 -30
-72 -30 -13 0 -18 -5 -15 -14 3 -8 1 -17 -6 -20 -9 -3 -8 -5 1 -5 20 -1 3 -21
-17 -21 -10 0 -24 -7 -31 -15 -9 -10 -9 -15 -1 -15 15 0 14 -33 -1 -48 -9 -9
-9 -15 1 -24 11 -10 14 -10 18 0 3 6 10 12 18 12 7 0 20 10 28 23 16 22 16 22
16 1 1 -12 11 -26 24 -33 20 -11 19 -11 -10 -6 -42 6 -42 -6 1 -39 35 -26 80
-34 91 -16 3 5 19 7 34 4 16 -3 31 -1 35 5 11 18 9 75 -5 106 -13 31 -16 40
-18 53 -2 17 -39 52 -54 52 -9 0 -19 5 -22 10 -8 13 42 32 69 27 20 -3 19 -4
-4 -14 l-25 -11 26 -10 c15 -6 29 -18 32 -26 4 -9 13 -16 21 -16 10 0 13 6 10
15 -4 10 0 15 15 15 12 0 21 6 21 15 0 9 -6 12 -16 8 -14 -5 -13 -3 2 15 l18
22 24 -25 c12 -14 31 -25 40 -25 10 0 23 -5 29 -11 5 -5 30 -9 54 -7 40 3 44
5 52 38 4 19 9 60 10 90 2 46 -2 58 -20 73 -22 17 -74 21 -143 8z"/>
<path d="M1713 6031 c-4 -9 -8 -19 -10 -23 -3 -7 82 -68 96 -68 5 0 14 -7 21
-15 7 -8 17 -12 22 -9 5 3 12 -3 15 -14 6 -24 53 -49 53 -28 0 7 6 19 14 25 8
7 12 21 8 33 -4 17 -2 20 11 15 13 -5 14 -2 8 15 -4 12 -14 24 -21 26 -9 3
-11 -1 -7 -11 4 -11 2 -14 -8 -11 -29 11 -39 -8 -14 -27 l24 -19 -23 0 c-16 0
-26 7 -29 20 -5 19 -7 19 -23 5 -16 -14 -17 -13 -15 22 3 40 -23 71 -46 57 -6
-3 -15 -1 -19 7 -12 18 -51 19 -57 0z"/>
<path d="M2230 6010 c0 -6 -10 -15 -22 -20 -23 -9 -23 -9 -2 -9 26 -1 41 -41
16 -41 -10 -1 -1 -7 18 -14 19 -7 61 -29 92 -49 42 -27 68 -37 97 -37 22 0 55
-6 73 -14 122 -50 179 -52 197 -5 l8 22 15 -22 c10 -14 18 -18 23 -12 3 6 0
20 -8 31 -13 19 -14 19 -45 0 -26 -16 -32 -17 -32 -5 0 8 -4 15 -10 15 -5 0
-10 -7 -10 -15 0 -16 -41 -14 -123 6 -44 11 -40 33 4 24 34 -8 39 9 9 25 -22
12 -27 36 -7 43 6 3 2 6 -10 6 -12 1 -23 7 -26 14 -3 9 -7 9 -20 -2 -24 -19
-114 -19 -133 1 -21 20 -9 45 12 27 8 -6 17 -9 20 -6 10 10 -6 27 -27 27 -10
0 -19 5 -19 10 0 6 -6 10 -13 10 -9 0 -12 -10 -9 -30 5 -34 -7 -38 -44 -13
-17 11 -21 18 -14 23 9 5 9 9 1 14 -6 4 -11 2 -11 -4z"/>
<path d="M1675 5943 c-47 -7 -57 -20 -38 -49 9 -14 22 -23 29 -20 11 4 11 2 2
-14 -7 -10 -17 -18 -22 -17 -6 1 -10 -9 -8 -23 1 -14 3 -37 4 -52 1 -16 6 -28
11 -28 6 0 7 3 4 7 -8 7 11 33 24 33 5 0 9 -7 9 -15 0 -8 7 -15 15 -15 8 0 15
5 15 11 0 5 5 7 11 3 8 -4 8 -9 0 -17 -14 -14 -14 -30 0 -22 5 4 19 -1 30 -11
15 -13 22 -15 31 -6 17 17 24 15 48 -10 11 -12 22 -19 26 -16 3 3 -8 20 -25
37 -35 35 -38 43 -16 35 8 -4 15 -1 15 4 0 6 -10 12 -22 14 -30 4 -36 28 -6
28 20 1 21 2 6 11 -9 5 -15 16 -12 23 3 7 -9 26 -27 40 -18 15 -26 26 -18 24
20 -4 25 14 6 26 -12 7 -26 7 -49 -2 -43 -16 -47 -9 -6 11 34 17 26 19 -37 10z"/>
<path d="M325 5720 c-42 -20 -53 -37 -54 -87 -1 -42 26 -57 90 -51 27 3 49 1
49 -3 0 -5 9 -9 19 -9 11 0 23 -4 26 -10 11 -18 26 -10 20 10 -9 27 3 44 20
30 31 -26 31 3 2 54 -27 44 -40 56 -78 69 -26 10 -48 17 -50 16 -2 0 -22 -9
-44 -19z"/>
<path d="M6120 5706 c0 -9 -4 -16 -10 -16 -5 0 -9 -10 -9 -22 1 -17 2 -19 6
-5 8 29 20 19 27 -20 10 -65 8 -82 -11 -78 -10 2 -21 4 -25 4 -5 1 -8 8 -8 17
0 8 5 12 10 9 6 -3 10 4 10 16 0 18 -2 20 -16 9 -13 -11 -16 -10 -21 9 -3 12
-11 20 -17 18 -6 -3 -9 -11 -7 -18 2 -8 6 -33 8 -56 4 -34 10 -42 29 -46 17
-3 24 0 24 11 0 11 3 12 14 3 10 -8 19 -5 39 13 18 17 33 22 48 19 20 -6 21
-4 15 33 -4 21 -14 44 -22 50 -8 6 -14 16 -14 22 0 5 -7 13 -16 16 -23 9 -28
7 -16 -6 10 -13 12 -19 12 -38 0 -5 8 -10 17 -10 12 0 14 -3 6 -11 -20 -20
-53 7 -53 46 0 18 -4 37 -10 40 -5 3 -10 -1 -10 -9z"/>
<path d="M613 5703 c-18 -2 -33 -8 -33 -14 0 -5 3 -8 8 -7 4 0 18 -3 32 -9 25
-10 25 -10 3 -17 -19 -6 -21 -10 -10 -27 9 -16 9 -21 -1 -28 -7 -4 -10 -15 -7
-23 4 -9 2 -19 -4 -23 -6 -3 -11 -19 -11 -36 0 -16 -5 -29 -12 -29 -6 0 -8 -3
-5 -6 11 -11 89 -15 101 -5 6 5 24 11 39 13 21 3 33 15 51 50 43 86 21 139
-65 157 -28 6 -51 10 -52 9 -1 0 -17 -3 -34 -5z"/>
<path d="M2200 5671 c0 -6 4 -13 10 -16 6 -4 5 -14 -4 -28 -7 -12 -17 -35 -20
-50 -5 -20 -11 -27 -21 -23 -19 7 -19 1 0 -27 13 -20 22 -23 67 -20 31 2 58
10 64 18 14 19 21 19 21 0 0 -9 -14 -17 -36 -21 -55 -9 -73 -15 -66 -22 4 -4
10 -7 13 -8 4 0 14 -4 22 -7 28 -12 74 -16 99 -10 23 6 24 7 6 14 -17 7 -18 8
-2 8 9 1 17 5 17 10 0 5 -8 12 -17 16 -16 6 -15 8 7 20 14 8 20 14 15 15 -6 0
-16 15 -24 33 -8 17 -21 40 -30 50 -13 16 -13 19 -1 27 17 10 13 17 -15 22
-14 2 -19 -2 -17 -14 4 -25 -34 -23 -55 2 -19 21 -33 26 -33 11z"/>
<path d="M1240 5646 c0 -3 5 -17 10 -31 8 -20 15 -26 30 -22 11 3 20 2 20 -3
0 -4 -9 -10 -21 -13 -12 -3 -18 -10 -15 -16 5 -7 15 -7 31 -1 32 12 34 -7 3
-20 l-23 -9 23 0 c12 -1 22 -6 22 -12 0 -5 4 -8 10 -4 5 3 8 -13 7 -40 -2 -40
-5 -46 -31 -55 -35 -12 -27 -24 16 -24 17 -1 33 -7 36 -15 4 -11 -4 -13 -34
-8 -40 6 -97 -14 -76 -27 6 -3 13 -2 17 4 4 6 11 7 17 4 7 -4 8 -2 4 4 -9 16
3 15 33 -2 l24 -13 -36 -18 c-21 -10 -37 -24 -37 -34 1 -13 3 -13 15 3 12 16
18 17 27 8 9 -9 9 -12 0 -12 -7 0 -12 -4 -12 -10 0 -5 8 -9 18 -8 45 4 60 -2
55 -21 -3 -13 2 -20 18 -24 13 -4 20 -9 16 -13 -3 -3 -14 -3 -24 1 -26 12 -25
12 -60 20 -18 4 -33 11 -33 16 0 8 -58 -5 -68 -16 -3 -3 0 -11 6 -17 9 -9 9
-15 0 -26 -9 -10 -9 -15 1 -22 8 -4 10 -13 5 -21 -11 -18 -12 -59 -1 -59 5 0
7 -10 3 -23 -3 -14 1 -33 10 -45 14 -20 14 -23 -1 -28 -12 -5 -13 -9 -4 -20 6
-8 7 -14 2 -14 -5 0 -8 -23 -7 -51 2 -39 -2 -55 -18 -71 -22 -22 -18 -35 8
-20 19 10 57 4 49 -8 -3 -5 9 -12 27 -15 18 -4 38 -15 45 -24 11 -15 14 -15
42 0 21 12 32 14 40 6 8 -8 11 -6 11 6 0 9 7 17 16 17 9 0 18 9 21 20 3 11 9
20 14 20 11 0 8 59 -3 66 -4 3 -15 22 -24 42 -23 48 -21 47 -39 32 -9 -7 -15
-8 -15 -2 0 6 4 12 10 14 5 2 7 13 4 25 -5 16 -13 21 -35 21 -17 -1 -35 4 -42
11 -9 10 -9 12 3 11 33 -5 42 0 37 20 -6 22 5 25 32 11 14 -8 17 -6 16 7 -4
39 -17 82 -26 82 -5 0 -9 5 -9 10 0 6 14 10 30 10 17 0 30 5 30 11 0 6 6 9 13
6 19 -7 77 20 77 36 0 8 9 22 19 31 19 18 19 18 0 63 -10 24 -19 55 -19 68 0
30 -52 85 -80 85 -11 0 -20 5 -20 11 0 6 -9 8 -20 4 -20 -6 -28 9 -10 20 17
10 11 25 -10 25 -20 0 -28 15 -11 22 12 4 2 58 -11 58 -6 0 -8 -9 -5 -20 5
-21 -7 -28 -18 -10 -3 6 -16 10 -28 10 -17 0 -19 2 -7 10 24 15 4 22 -34 12
-21 -6 -36 -7 -36 -1 0 5 -4 9 -10 9 -5 0 -10 -2 -10 -4z"/>
<path d="M178 5512 c-21 -4 -25 -32 -5 -32 7 0 18 5 25 12 9 9 12 9 12 0 0 -6
-16 -18 -35 -26 -41 -17 -42 -24 -15 -54 15 -15 32 -22 58 -21 32 0 34 1 15 9
-13 5 -23 12 -23 14 0 7 61 0 83 -9 18 -8 24 -35 7 -35 -6 0 -15 -11 -20 -25
-5 -14 -14 -25 -20 -25 -23 0 -51 22 -46 35 6 16 -14 25 -55 25 -20 0 -29 5
-29 16 0 9 -6 14 -12 11 -7 -2 -12 -15 -10 -30 2 -16 -4 -35 -17 -48 -11 -12
-19 -33 -19 -48 1 -15 -5 -38 -13 -51 -7 -14 -13 -29 -14 -33 0 -4 -6 -12 -14
-16 -7 -5 -10 -14 -7 -20 4 -6 0 -11 -8 -11 -19 0 -22 -36 -3 -43 10 -4 10 -6
0 -6 -30 -2 -2 -61 29 -61 8 1 6 6 -6 15 -11 8 -17 17 -15 19 5 5 62 -7 92
-19 27 -11 21 22 -7 41 -14 8 -22 22 -20 29 3 7 0 23 -6 35 -8 15 -8 20 -1 16
6 -4 11 0 11 8 0 22 15 20 69 -6 l46 -22 -27 -10 c-27 -9 -38 -26 -18 -26 5 0
7 -7 4 -15 -5 -13 -9 -13 -22 -3 -13 11 -14 10 -10 -2 5 -16 57 -25 92 -16 17
4 22 14 24 42 2 21 10 43 20 50 16 11 15 14 -2 33 -12 13 -26 19 -40 15 -12
-3 -40 2 -64 10 -23 8 -50 12 -59 9 -11 -4 -14 -3 -9 5 4 7 16 12 27 12 11 0
18 4 15 8 -17 28 57 45 114 27 15 -5 25 -2 31 6 7 11 9 10 9 -4 0 -10 4 -16 9
-13 5 4 11 2 13 -4 2 -5 9 -6 16 -1 15 9 33 121 20 121 -4 0 -8 6 -8 14 0 8
-9 18 -20 21 -11 3 -20 11 -20 16 0 5 -9 9 -19 9 -34 0 -51 12 -51 35 0 24 -8
26 -52 17z"/>
<path d="M979 5408 c-7 -13 -18 -28 -25 -35 -13 -14 -8 -53 8 -53 5 0 7 -10 4
-22 -3 -13 -3 -17 0 -10 8 18 28 15 42 -8 7 -11 8 -20 3 -20 -6 0 -12 4 -15 9
-3 4 -17 6 -31 4 -35 -7 -23 -19 27 -28 48 -9 44 -9 81 0 20 6 27 4 25 -6 -2
-7 2 -13 7 -14 6 0 20 -6 33 -13 14 -8 22 -9 22 -2 0 5 7 10 15 10 8 0 15 5
15 11 0 7 8 18 18 26 12 10 14 16 5 19 -7 3 -13 17 -13 30 0 13 -6 24 -13 24
-7 0 -23 9 -36 21 -15 14 -30 19 -46 15 -19 -5 -23 -3 -19 8 3 8 -5 23 -17 35
-26 24 -39 27 -39 9 0 -9 -3 -9 -12 0 -17 17 -26 15 -39 -10z"/>
<path d="M715 5403 c4 -10 7 -36 6 -58 -1 -45 24 -89 38 -67 6 10 10 8 14 -9
7 -24 -3 -43 -10 -21 -3 6 -12 12 -20 12 -13 0 -13 -3 -3 -15 10 -13 9 -15 -8
-15 -12 0 -27 -6 -34 -13 -9 -10 -17 -11 -35 -3 -12 6 -23 15 -23 19 0 5 -5 5
-10 2 -6 -4 -18 -1 -26 6 -8 6 -18 9 -22 5 -4 -4 1 -12 11 -17 9 -6 17 -16 17
-24 0 -11 9 -14 34 -9 20 3 37 0 41 -6 5 -8 11 -7 22 2 8 6 24 13 35 15 17 3
19 -1 13 -27 -4 -16 -2 -30 3 -30 10 0 30 36 34 65 4 25 45 29 58 6 8 -14 9
-14 10 2 0 12 8 17 30 17 17 0 30 -4 30 -10 0 -5 -11 -10 -25 -10 -14 0 -25
-4 -25 -10 0 -16 40 -12 57 5 14 14 13 18 -5 33 -23 20 -27 88 -5 96 7 3 13
12 13 20 0 9 -6 13 -14 10 -21 -8 -29 13 -8 22 14 6 12 8 -13 14 -16 4 -44 8
-62 9 -31 1 -31 1 -28 -41 2 -24 4 -46 4 -50 1 -4 8 -14 17 -22 14 -14 13 -16
-10 -14 -21 2 -26 8 -26 28 0 33 -15 55 -30 45 -9 -5 -11 -4 -6 3 4 6 -2 20
-14 32 -25 25 -35 26 -25 3z"/>
<path d="M460 5239 c0 -7 -9 -9 -21 -6 -13 3 -28 -2 -40 -14 -24 -24 -89 -28
-69 -4 7 9 8 15 2 15 -15 0 -24 -32 -12 -40 6 -4 8 -14 4 -24 -4 -11 -2 -16 7
-14 16 3 15 -3 -3 -50 -11 -29 -11 -35 2 -42 8 -4 29 -20 45 -34 36 -31 40
-32 58 -6 11 16 21 19 41 14 14 -3 29 -10 32 -15 3 -5 16 -9 29 -9 13 0 26 -6
28 -12 3 -8 6 -5 6 6 1 15 7 17 31 14 17 -3 33 -1 36 3 7 12 34 -1 34 -16 0
-18 -27 -38 -34 -26 -3 5 0 11 6 14 7 2 11 7 8 10 -12 13 -33 -11 -25 -29 5
-11 7 -22 7 -26 -1 -5 4 -8 11 -8 7 -1 4 -7 -7 -15 -14 -11 -24 -12 -38 -4
-17 9 -19 8 -13 -10 4 -12 2 -21 -4 -21 -6 0 -11 3 -11 8 0 4 -14 8 -30 9 -37
3 -40 -14 -3 -19 14 -2 28 -8 30 -14 2 -7 -5 -10 -20 -7 -14 3 -29 -2 -37 -11
-15 -19 -5 -35 12 -18 17 17 28 15 28 -7 0 -11 4 -21 9 -23 5 -1 11 -16 13
-33 2 -23 -1 -30 -16 -33 -10 -2 -23 2 -27 10 -8 11 -11 11 -18 -2 -5 -8 -7
-18 -4 -23 4 -6 -9 -7 -32 -3 -26 5 -35 4 -30 -4 4 -7 -1 -14 -13 -17 -13 -3
-18 -11 -15 -19 3 -8 1 -14 -3 -15 -60 -4 -100 -19 -53 -19 l23 0 -22 -16
c-15 -10 -21 -22 -17 -34 3 -10 8 -29 10 -42 3 -12 8 -24 12 -26 22 -7 35 -21
29 -30 -7 -12 -114 -11 -133 1 -7 5 -18 5 -25 1 -7 -5 -9 -2 -5 9 4 12 2 14
-11 10 -15 -6 -15 -4 -4 10 8 8 20 13 28 10 8 -3 20 7 31 26 10 17 21 31 26
31 16 0 6 20 -10 21 -12 0 -8 4 9 10 17 7 25 15 22 24 -4 9 3 16 20 21 14 3
26 10 26 15 0 6 -8 5 -20 -1 -10 -6 -25 -9 -32 -8 -7 2 -12 -2 -11 -8 1 -5 -7
-15 -18 -22 -14 -9 -19 -9 -19 -1 0 8 -5 7 -16 -1 -13 -11 -16 -10 -20 8 -4
11 -13 23 -21 26 -12 5 -13 9 -3 21 11 13 8 15 -14 15 -16 0 -25 -4 -21 -10
10 -16 -12 -11 -31 7 -16 16 -16 16 -10 -5 8 -24 -4 -28 -35 -12 -10 6 -19 18
-19 28 0 9 -7 26 -15 36 -12 16 -12 22 -2 29 8 6 7 7 -5 4 -16 -6 -40 13 -37
29 3 18 -1 34 -10 34 -4 0 -9 -27 -10 -60 -1 -56 0 -60 24 -66 27 -7 32 -23
13 -42 -15 -15 -32 -16 -23 -2 3 6 1 10 -4 10 -6 0 -11 -8 -11 -18 0 -18 37
-42 65 -42 9 0 12 -6 8 -16 -4 -11 -2 -15 7 -12 8 2 18 18 24 34 9 25 15 29
38 24 22 -4 25 -8 18 -20 -14 -21 -12 -30 5 -30 9 0 18 -7 22 -15 5 -14 8 -14
24 1 23 21 24 8 4 -33 -14 -27 -19 -30 -58 -28 -23 1 -50 5 -60 10 -10 4 -21
5 -24 1 -11 -10 -11 -49 -1 -68 13 -26 28 -22 28 7 0 46 17 26 18 -22 1 -38
-1 -44 -9 -30 -6 9 -14 15 -20 12 -5 -4 -9 0 -9 7 0 10 -2 11 -8 0 -5 -7 -16
-10 -26 -6 -15 6 -15 7 1 19 10 8 14 17 10 21 -4 5 -11 4 -15 -2 -4 -6 -15
-13 -25 -17 -23 -9 -22 -27 3 -27 11 0 24 -8 27 -17 4 -10 13 -23 22 -29 12
-10 12 -13 -4 -22 -16 -8 -17 -13 -6 -26 7 -9 17 -13 22 -10 5 3 9 -2 9 -11 0
-12 -4 -14 -19 -5 -11 5 -31 10 -45 10 l-26 0 0 -134 c0 -125 1 -134 20 -139
26 -7 26 -27 0 -27 -19 0 -20 -7 -20 -174 0 -130 3 -176 13 -179 9 -4 9 -6 0
-6 -8 -1 -13 -17 -13 -45 0 -26 5 -46 13 -49 10 -4 10 -6 0 -6 -7 -1 -13 -5
-13 -11 0 -16 37 -12 44 5 7 20 26 19 26 -1 0 -8 4 -12 10 -9 6 3 7 -1 4 -10
-4 -9 -12 -14 -20 -11 -25 9 -64 -18 -64 -44 l1 -25 18 23 c16 18 61 32 61 18
0 -15 -52 -57 -64 -53 -12 5 -14 -7 -13 -69 0 -54 4 -74 14 -74 18 0 17 -19
-2 -26 -18 -7 -21 -74 -3 -92 8 -8 8 -15 0 -25 -9 -10 -12 -114 -12 -362 l1
-347 31 6 c17 3 37 6 45 6 8 0 12 4 8 9 -6 11 33 26 43 16 4 -3 0 -10 -8 -15
-40 -26 34 4 90 35 15 9 26 11 28 4 3 -6 9 -6 18 2 8 6 11 15 8 20 -7 12 26
24 35 12 3 -5 17 -6 31 -2 16 4 19 7 8 8 -21 1 -23 8 -5 25 18 18 57 27 51 11
-3 -7 1 -15 9 -18 10 -4 13 2 10 21 -2 15 -1 22 3 15 5 -12 34 -6 45 9 3 5 16
4 30 -1 l24 -10 -27 0 c-15 -1 -30 -6 -34 -13 -5 -8 0 -9 15 -5 17 4 21 2 17
-9 -3 -9 1 -14 12 -15 15 0 15 -1 -1 -8 -17 -6 -17 -8 5 -18 32 -15 49 11 41
61 -5 32 -3 36 15 36 32 0 38 21 13 42 l-23 18 31 -6 c26 -6 31 -3 30 12 0 11
-3 14 -6 7 -8 -21 -22 -15 -16 7 6 23 -15 28 -35 8 -6 -6 -15 -9 -18 -5 -8 8
36 46 54 47 6 0 12 5 12 10 0 13 -2 13 -36 -5 -18 -9 -32 -11 -39 -5 -7 6 -16
5 -23 -2 -9 -9 -12 -9 -12 0 0 7 8 15 18 18 9 3 34 14 54 24 20 11 46 20 56
20 11 0 25 7 32 15 8 10 9 15 2 15 -6 0 -9 6 -6 13 2 7 33 19 67 27 60 14 61
14 23 18 -37 3 -38 4 -17 18 13 9 30 13 42 9 19 -6 21 -4 15 19 -4 15 -2 26 4
26 5 0 10 -10 10 -22 0 -19 2 -20 10 -8 6 9 10 10 10 3 0 -7 9 -17 19 -22 15
-8 27 -5 55 14 20 14 45 25 54 25 10 0 23 5 30 12 9 9 12 9 12 0 0 -18 31 -2
40 22 8 18 9 19 9 2 1 -12 6 -16 17 -12 9 3 28 6 42 7 l27 1 -29 8 c-16 5 -34
6 -39 3 -6 -4 -7 -1 -3 6 5 7 14 10 22 7 7 -3 16 -1 19 3 6 10 77 7 94 -3 6
-4 11 0 11 9 0 10 6 15 18 13 9 -2 16 -10 14 -16 -1 -7 6 -12 15 -12 13 0 14
3 5 12 -20 20 -13 30 18 26 24 -4 30 -1 30 14 0 11 -5 16 -10 13 -6 -3 -10 -1
-10 4 0 14 17 14 25 1 3 -5 17 -10 31 -10 28 0 30 -7 9 -37 -11 -16 -12 -24
-4 -29 8 -4 9 -3 5 4 -5 8 0 12 12 12 11 0 22 -9 25 -20 3 -11 10 -20 16 -20
8 0 6 10 -4 30 -8 16 -15 44 -15 63 0 20 -9 46 -21 61 -11 14 -17 30 -14 36 3
6 -1 13 -9 16 -8 3 -18 14 -21 25 -4 11 -10 17 -15 14 -8 -5 10 -79 30 -114 6
-12 7 -21 2 -21 -16 0 -32 25 -32 51 0 31 -18 41 -62 32 -27 -5 -30 -4 -25 11
4 10 7 22 7 28 0 7 5 7 13 -1 13 -10 27 -6 27 10 0 14 -39 17 -44 3 -3 -8 -15
-14 -26 -14 -18 0 -19 3 -10 20 7 14 7 20 0 20 -5 0 -10 5 -10 11 0 6 8 8 19
4 19 -6 49 20 37 32 -3 3 -6 0 -7 -8 0 -8 -4 -4 -10 9 -6 17 -4 32 6 52 17 32
20 53 5 30 -8 -12 -10 -11 -10 6 0 12 -11 29 -25 38 -31 21 -36 20 -32 -4 4
-22 17 -40 17 -22 0 7 6 12 13 12 11 0 13 -12 8 -64 -1 -4 -9 -5 -18 -2 -9 4
-20 1 -25 -6 -5 -9 -8 -7 -8 7 -1 18 -2 18 -10 -2 -5 -13 -14 -23 -20 -23 -6
0 -6 7 2 20 11 16 9 22 -7 34 -11 9 -23 16 -27 16 -11 0 -10 -18 2 -25 13 -8
13 -25 -1 -25 -6 0 -13 9 -16 19 -5 19 -6 19 -41 -1 -21 -11 -40 -25 -44 -32
-6 -8 -8 -7 -8 2 0 6 -8 12 -17 13 -10 1 -3 6 15 11 38 13 44 33 7 24 -18 -5
-27 -2 -31 9 -9 23 -26 18 -19 -5 4 -11 2 -20 -4 -20 -6 0 -11 5 -11 11 0 5
-5 7 -11 3 -8 -5 -6 -10 5 -16 25 -14 19 -31 -10 -25 -18 3 -22 1 -15 -6 16
-16 13 -27 -7 -27 -10 0 -27 -6 -38 -14 -15 -12 -17 -17 -6 -27 10 -11 12 -10
12 5 0 23 42 18 46 -6 1 -12 -7 -17 -32 -20 -34 -4 -38 1 -37 40 1 7 -6 11
-16 9 -9 -2 -15 -7 -14 -13 1 -5 3 -16 5 -24 6 -29 -35 -17 -43 13 -5 20 -4
27 7 27 8 0 14 9 14 21 0 15 -5 19 -16 15 -9 -4 -13 -2 -8 5 4 6 -4 5 -17 -2
-13 -7 -27 -13 -31 -14 -3 0 -10 -3 -14 -7 -4 -5 -16 -8 -26 -8 -10 0 -18 -7
-18 -15 0 -8 -9 -15 -20 -15 -23 0 -24 4 -10 30 13 25 3 48 -23 52 -17 2 -22
10 -23 33 -2 46 -3 48 -16 37 -7 -5 -34 -13 -59 -17 -36 -5 -48 -3 -59 10 -12
15 -11 16 13 10 35 -9 34 1 -2 19 -20 11 -28 22 -27 38 3 42 -14 76 -45 87
-21 7 -28 7 -26 -2 1 -7 -10 -13 -25 -15 -16 -2 -28 -7 -28 -11 0 -5 -10 -11
-22 -14 -12 -4 -19 -9 -16 -12 3 -4 15 -2 26 4 25 13 74 15 54 2 -8 -4 -13
-11 -13 -15 1 -3 0 -7 0 -8 -5 -9 -4 -56 1 -53 3 2 21 0 40 -5 l35 -8 -36 -1
c-20 -1 -42 -8 -49 -16 -7 -8 -16 -12 -21 -10 -4 3 -18 0 -29 -7 -18 -11 -23
-10 -34 5 -7 9 -21 17 -30 17 -9 0 -16 7 -16 15 0 8 4 15 10 15 5 0 7 7 4 15
-4 8 -1 15 5 15 6 0 11 -6 11 -14 0 -16 28 -41 37 -33 3 4 -1 17 -10 30 -12
19 -13 27 -4 36 9 10 6 11 -14 6 -20 -5 -29 -1 -42 18 -12 19 -13 27 -4 36 9
9 8 14 -3 21 -9 6 -10 10 -3 10 6 0 14 -4 17 -9 10 -16 56 -19 56 -4 0 8 -6
13 -12 12 -7 -1 -21 1 -31 6 -25 11 -3 35 32 35 19 0 22 -3 12 -9 -20 -13 -6
-28 34 -35 19 -4 35 -11 35 -17 0 -6 4 -8 10 -4 5 3 7 12 3 20 -6 18 18 20 34
4 14 -14 59 33 67 70 8 41 44 91 71 101 27 10 33 34 13 44 -7 4 -3 4 10 2 12
-2 20 0 16 5 -3 5 -12 9 -20 9 -25 0 -15 16 21 36 19 10 35 22 35 26 0 12 -18
10 -25 -3 -4 -5 -18 -14 -31 -19 -14 -6 -24 -18 -24 -30 0 -11 -5 -20 -11 -20
-7 0 -9 10 -5 28 3 15 8 36 10 48 5 35 17 46 41 40 13 -3 26 -2 30 3 3 5 -3
12 -12 14 -11 3 -6 5 12 7 26 1 27 3 10 10 -11 5 -14 9 -7 9 7 1 23 12 36 26
13 14 26 25 30 25 12 0 6 -23 -11 -42 -15 -17 -15 -18 10 -18 27 0 27 0 8 -19
-11 -11 -28 -24 -39 -30 -23 -12 -19 -51 4 -51 8 0 14 -9 14 -19 0 -11 3 -27
6 -36 5 -13 2 -16 -12 -13 -10 2 -18 9 -17 15 1 7 -6 9 -20 5 -18 -5 -19 -7
-4 -10 9 -2 17 -7 17 -12 0 -5 -7 -7 -16 -3 -13 5 -15 2 -9 -18 7 -21 6 -22
-8 -11 -9 8 -18 9 -21 3 -4 -5 4 -17 16 -26 13 -8 22 -19 21 -23 -1 -4 5 -6
14 -4 8 2 12 -1 8 -7 -3 -6 -13 -11 -21 -11 -17 0 -19 -20 -1 -21 6 0 2 -4
-10 -9 -13 -5 -23 -15 -23 -21 0 -7 -8 -18 -17 -25 -17 -13 -17 -13 0 -14 9 0
17 -5 17 -11 0 -7 -9 -9 -21 -6 -15 4 -19 3 -12 -4 5 -5 28 -11 51 -12 22 0
39 -4 36 -8 -2 -4 0 -18 5 -31 9 -21 10 -21 10 10 1 30 3 32 29 26 37 -9 40
-13 18 -30 -11 -8 -14 -14 -8 -14 7 0 12 -7 12 -15 0 -8 5 -15 10 -15 6 0 10
-4 10 -10 0 -5 -7 -10 -15 -10 -8 0 -15 -7 -15 -15 0 -7 -8 -19 -18 -24 -15
-9 -15 -10 -1 -11 9 0 28 11 43 25 15 14 33 25 41 25 7 0 15 3 18 8 2 4 2 2 1
-5 -2 -6 4 -17 12 -24 14 -11 15 -9 13 17 -1 16 -1 40 -1 53 2 20 4 21 17 11
8 -7 15 -18 15 -26 0 -32 44 -26 53 7 3 10 10 19 16 19 16 0 14 -16 -4 -32
-36 -33 -42 -36 -56 -27 -22 14 -33 10 -19 -6 7 -8 22 -15 34 -15 12 0 26 -4
31 -8 13 -12 105 -2 105 10 0 6 -13 8 -31 4 l-32 -6 29 22 c16 13 35 28 42 35
16 15 32 17 32 4 0 -5 -9 -13 -20 -16 -25 -8 -26 -24 -3 -41 11 -8 13 -13 6
-14 -15 0 -18 -30 -4 -30 5 0 17 3 25 6 13 5 14 9 5 20 -9 11 -6 14 15 14 16
0 25 4 21 10 -3 6 -17 10 -30 10 -13 0 -27 5 -30 10 -3 6 1 10 9 10 9 0 16 6
17 13 0 6 2 24 3 40 2 31 -9 36 -17 7 -6 -23 -37 -27 -37 -5 0 8 5 15 12 15 9
0 9 3 1 11 -6 6 -33 13 -59 15 -27 3 -55 7 -61 9 -7 2 -13 0 -13 -5 0 -6 -5
-10 -11 -10 -6 0 -7 8 -3 23 5 12 9 34 10 50 3 46 3 47 23 47 11 0 23 5 26 10
3 6 3 10 -2 10 -4 0 -7 24 -7 52 1 41 5 54 18 56 9 2 16 9 15 15 -2 21 13 57
22 51 5 -3 6 2 3 10 -3 8 -14 18 -25 21 -24 8 -24 21 0 35 28 14 35 12 21 -5
-22 -26 3 -42 42 -27 40 15 47 10 54 -39 4 -21 11 -39 16 -39 6 0 8 14 6 30
-4 24 -1 30 9 25 8 -3 16 -5 17 -5 1 0 1 -13 -2 -30 -4 -27 -8 -30 -38 -30
-32 0 -33 1 -27 32 6 29 5 31 -18 25 -13 -4 -27 -7 -31 -7 -5 0 -8 -5 -8 -11
0 -6 8 -8 18 -5 16 5 18 1 18 -29 -1 -37 -16 -50 -16 -14 0 12 -4 17 -11 13
-6 -3 -9 -15 -6 -25 4 -14 0 -19 -15 -19 -17 0 -18 3 -8 15 7 8 9 22 5 32 -9
23 -36 -78 -32 -122 1 -23 -3 -31 -18 -33 -49 -9 -31 -19 27 -15 90 6 120 5
132 -7 5 -5 21 -10 35 -11 16 0 20 -3 11 -6 -8 -3 -18 -11 -22 -17 -4 -6 -22
-11 -40 -11 -18 0 -34 -4 -35 -10 -1 -5 5 -9 14 -7 11 2 14 -1 10 -12 -5 -12
0 -16 16 -16 23 0 47 -17 47 -32 0 -4 -6 -5 -14 -2 -20 8 -30 -14 -16 -31 16
-19 30 -19 30 1 0 11 8 14 28 12 27 -3 32 -15 17 -50 -5 -14 -2 -18 13 -18 11
0 22 6 24 12 3 7 18 11 37 10 23 -2 32 1 28 10 -2 7 -15 13 -30 13 -14 0 -29
3 -33 8 -4 4 0 7 10 7 9 0 19 7 22 15 4 9 18 15 38 14 17 0 25 -3 19 -6 -21
-8 -15 -22 7 -16 11 3 20 0 20 -6 0 -6 5 -11 12 -11 9 0 9 3 0 12 -7 7 -12 20
-12 29 0 12 -6 16 -20 12 -29 -8 -25 12 6 26 21 9 24 14 14 26 -14 17 2 45 26
45 17 0 18 12 3 27 -8 8 -8 13 0 17 18 12 13 36 -6 30 -10 -2 -8 1 5 7 26 14
29 29 4 29 -9 0 -23 -9 -30 -20 -7 -12 -18 -20 -25 -19 -30 4 -38 -2 -32 -21
4 -14 2 -20 -9 -20 -9 0 -13 6 -10 14 4 10 -2 12 -20 9 -14 -3 -26 -12 -26
-19 0 -8 -4 -14 -10 -14 -5 0 -10 5 -10 11 0 6 -6 9 -12 6 -7 -2 -12 -10 -11
-16 4 -17 -34 -13 -41 4 -3 8 2 19 12 24 10 6 12 11 5 11 -8 0 -13 13 -13 30
0 17 -5 30 -11 30 -6 0 -9 7 -5 15 3 9 0 15 -9 15 -9 0 -12 -6 -9 -15 4 -10 0
-15 -15 -15 -20 0 -21 1 -6 24 10 16 22 22 34 19 15 -4 21 3 26 29 4 18 12 36
18 40 14 9 6 17 -22 23 -35 7 -43 15 -30 31 9 11 8 14 -4 14 -9 0 -22 9 -30
21 -10 13 -16 16 -19 8 -7 -20 -38 -2 -38 21 0 24 28 39 40 21 5 -10 9 -9 13
2 6 16 -18 31 -34 22 -5 -3 -18 -1 -29 5 -15 8 -24 6 -39 -9 -17 -17 -18 -21
-5 -32 26 -22 -3 -39 -65 -38 -31 1 -71 -2 -90 -6 -26 -6 -33 -5 -29 6 3 8 22
16 44 20 21 3 50 11 63 18 21 12 23 11 18 -3 -3 -8 -2 -18 2 -21 13 -8 34 23
27 40 -3 8 -2 15 2 15 5 0 18 9 29 19 11 11 33 21 49 23 22 2 30 10 38 36 9
33 26 44 26 17 0 -21 36 -19 44 2 6 15 8 15 16 3 11 -18 25 -5 25 23 0 30 62
43 71 15 5 -15 12 -18 36 -13 50 11 74 28 70 50 -6 33 -22 42 -22 12 0 -40
-29 -50 -76 -27 -43 22 -70 25 -80 9 -4 -7 -24 -9 -49 -6 l-43 4 19 -20 c12
-13 16 -24 9 -31 -11 -11 -40 10 -40 30 0 7 -8 18 -17 23 -28 17 2 30 45 20
20 -4 38 -6 41 -3 2 2 -1 4 -7 4 -7 0 -12 11 -12 24 0 15 -7 27 -17 30 -11 3
-7 4 7 3 18 -2 25 3 24 16 -2 19 7 22 23 6 6 -6 19 -9 29 -6 17 4 17 6 -3 12
-35 11 -27 32 13 38 20 4 47 16 60 28 19 18 26 20 38 10 12 -10 16 -8 21 11 9
27 30 49 39 41 3 -4 6 -1 6 5 0 29 -31 21 -45 -13 -7 -18 -9 -18 -12 -2 -3 9
-13 17 -24 17 -10 0 -19 5 -19 10 0 6 10 10 22 10 17 0 19 3 10 12 -9 9 -18 9
-37 0 -30 -14 -45 -8 -45 15 0 12 3 13 14 4 10 -8 16 -9 21 -1 3 5 1 10 -6 10
-8 0 -7 5 2 17 13 15 12 16 -9 10 -15 -3 -36 2 -57 14 -29 18 -33 18 -39 3 -9
-23 -8 -27 9 -20 20 7 19 1 -2 -20 -12 -12 -14 -19 -6 -21 7 -3 9 -11 6 -20
-4 -10 -2 -14 4 -10 11 7 28 -37 24 -60 -2 -16 14 -17 41 -2 14 8 23 8 31 0
10 -10 -1 -16 -25 -12 -5 0 -8 -3 -8 -8 0 -5 -11 -11 -25 -13 -17 -4 -25 -1
-25 8 0 8 -5 14 -11 14 -6 0 -9 -7 -5 -15 6 -18 -5 -20 -22 -3 -7 7 -8 17 -2
29 7 12 6 20 -1 24 -16 10 -24 -3 -24 -41 0 -31 3 -34 30 -34 23 0 27 -3 15
-10 -8 -5 -32 -10 -52 -10 -21 0 -38 -5 -38 -10 0 -6 10 -9 23 -7 12 2 16 2
10 0 -7 -3 -13 -11 -13 -19 0 -28 -30 -15 -31 14 l-1 27 -11 -27 c-6 -16 -15
-28 -20 -28 -4 0 -6 4 -2 9 3 6 -4 15 -15 21 -25 13 -26 32 -2 28 9 -2 16 3
14 10 -1 7 5 15 13 17 8 3 23 8 33 12 9 3 20 5 25 5 4 -1 7 4 7 12 0 12 -6 12
-32 3 -24 -9 -32 -9 -35 0 -5 14 -61 7 -78 -9 -7 -7 1 -8 23 -3 21 4 32 3 32
-5 0 -14 -25 -40 -39 -40 -19 0 -12 -19 13 -36 14 -8 22 -22 20 -29 -4 -10 1
-12 18 -9 21 5 22 5 5 -9 -10 -8 -21 -34 -25 -58 -9 -53 -32 -65 -32 -17 0 19
-5 39 -11 45 -8 8 -7 16 2 31 11 18 10 24 -5 41 -10 11 -21 20 -25 19 -18 -2
-21 4 -11 21 7 15 5 25 -9 42 -18 22 -22 23 -62 12 -24 -6 -45 -10 -46 -9 -7
7 60 64 71 60 7 -3 19 2 26 11 11 13 9 15 -14 15 -20 0 -27 6 -33 28 -4 15 -6
33 -5 40 3 15 -29 72 -40 72 -4 0 -8 9 -8 19 0 11 -5 23 -10 26 -6 4 -8 11 -5
16 3 5 0 6 -8 4 -7 -3 -24 -1 -38 4 -23 9 -22 10 9 10 22 1 32 5 29 14 -2 6
-16 11 -30 9 -34 -3 -45 16 -15 27 17 7 19 10 6 10 -10 1 -18 8 -18 17 0 8 4
13 9 10 5 -3 11 4 14 15 3 12 10 18 15 15 6 -3 8 -16 4 -28 -3 -14 -2 -19 6
-14 7 4 12 1 12 -8 0 -21 43 -21 60 -1 10 12 9 15 -8 15 -11 0 -24 6 -29 13
-13 16 -10 43 4 40 18 -4 138 44 124 48 -9 3 -6 12 8 31 12 15 28 46 36 69 14
38 14 44 -1 60 -9 10 -13 23 -9 29 4 7 -2 9 -19 4 -24 -6 -26 -4 -22 22 2 16
1 21 -1 12 -6 -24 -79 -24 -111 -2 -13 9 -26 14 -29 11 -3 -3 -25 15 -50 39
-40 41 -46 44 -57 28 -12 -15 -14 -14 -33 10 -21 26 -53 35 -53 15z m600
-1948 c0 -5 -6 -12 -12 -15 -7 -2 -4 -4 7 -4 42 2 65 -2 65 -13 0 -6 -9 -9
-20 -6 -11 3 -23 1 -26 -4 -3 -5 6 -9 19 -9 34 0 38 -16 28 -105 -2 -19 -3
-19 -13 3 -15 30 -32 28 -26 -3 3 -14 2 -26 -1 -27 -25 -6 -68 -4 -78 4 -9 7
-13 7 -13 -2 0 -6 9 -14 20 -17 41 -11 18 -23 -35 -19 -55 5 -65 0 -44 -21 7
-7 3 -12 -15 -17 -13 -3 -27 -14 -30 -24 -3 -10 -4 -6 -3 8 2 23 -1 25 -33 23
-19 0 -45 -4 -57 -8 -15 -5 -23 -3 -23 4 0 6 7 11 15 11 8 0 15 7 15 15 0 17
35 21 45 5 3 -5 19 -10 36 -10 31 0 41 19 12 22 -10 0 -23 2 -30 2 -6 1 -15 4
-18 8 -4 4 -17 3 -29 -1 -11 -5 -28 -6 -36 -3 -13 5 -13 3 -1 -12 13 -16 11
-17 -32 -11 -31 4 -47 3 -47 -4 0 -6 13 -11 30 -11 26 0 29 -2 21 -22 -5 -13
-9 -26 -10 -30 0 -5 -4 -7 -8 -5 -5 1 -7 5 -6 9 4 12 -71 -4 -87 -18 -12 -12
-11 -14 8 -14 12 0 22 -4 22 -9 0 -6 -9 -9 -20 -8 -11 1 -20 4 -20 8 0 14 -33
19 -47 8 -7 -7 -16 -9 -20 -6 -3 4 -12 2 -20 -5 -11 -8 -12 -7 -7 6 3 9 16 16
28 16 16 0 18 2 7 9 -8 5 -10 14 -5 22 6 11 4 11 -10 0 -14 -12 -19 -12 -26
-2 -4 8 -13 10 -20 6 -7 -4 -16 -1 -22 6 -7 11 -11 11 -15 2 -6 -15 -33 -17
-33 -3 0 6 -7 10 -16 10 -9 0 -14 -6 -11 -12 2 -7 18 -13 35 -13 18 0 32 -3
32 -7 0 -3 8 -9 18 -11 9 -3 -12 -3 -48 0 -35 2 -69 8 -75 13 -17 15 -117 -19
-122 -41 -6 -20 -33 -27 -33 -9 0 6 -10 15 -22 20 -15 6 -17 9 -7 9 25 1 77
30 106 59 23 23 24 27 9 37 -20 15 -21 25 -1 25 8 0 15 9 15 20 0 11 5 20 10
20 6 0 10 -5 10 -11 0 -6 9 -8 23 -4 17 5 19 4 7 -5 -13 -9 -13 -12 4 -25 10
-8 23 -12 27 -9 5 3 6 -2 3 -10 -4 -11 0 -16 10 -16 9 0 15 6 14 13 -2 7 9 13
25 15 24 3 25 5 12 18 -13 14 -12 18 14 40 36 30 40 30 71 1 14 -13 31 -22 38
-19 19 6 -5 32 -29 32 -23 0 -25 18 -4 26 14 6 14 8 -1 19 -16 11 -16 12 0 18
10 4 14 11 11 17 -3 5 1 10 10 10 8 0 20 -12 25 -26 8 -21 7 -29 -6 -38 -14
-11 -14 -13 0 -25 9 -7 24 -10 33 -7 15 6 15 8 3 16 -8 6 -11 10 -6 10 5 0 17
-7 26 -15 19 -17 50 -10 50 10 0 7 9 15 20 18 11 3 19 11 18 17 -2 7 3 15 10
17 7 3 12 -3 12 -13 0 -14 3 -15 12 -6 8 8 8 15 -1 25 -9 12 -8 16 3 20 9 4
18 2 21 -2 3 -5 14 -7 25 -4 16 4 19 2 14 -11 -4 -10 -1 -17 7 -17 56 -6 66
-4 62 8 -6 15 19 17 33 3 7 -7 16 -6 28 3 15 11 11 13 -28 15 -25 1 -48 -3
-51 -8 -3 -6 -11 -10 -18 -10 -6 0 -3 6 8 13 11 9 15 19 10 27 -8 14 20 11 59
-5 15 -7 17 -5 11 6 -7 10 -1 9 18 -3 35 -24 46 -23 57 7 9 24 30 35 30 16z"/>
<path d="M964 5222 c9 -14 -33 -42 -64 -43 -14 0 -19 -3 -12 -6 6 -2 12 -9 12
-14 0 -6 -4 -7 -10 -4 -5 3 -10 1 -10 -4 0 -6 7 -11 15 -11 8 0 15 -5 15 -11
0 -6 -7 -9 -15 -5 -8 3 -15 1 -15 -4 0 -6 -5 -10 -11 -10 -7 0 -9 10 -7 25 5
26 -5 34 -18 14 -11 -18 17 -89 35 -89 14 0 14 -2 1 -10 -8 -5 -15 -26 -17
-47 -1 -30 0 -34 8 -20 6 9 8 26 4 36 -5 15 -1 19 19 17 24 -1 24 -2 9 -25
-11 -18 -13 -26 -5 -29 7 -2 12 -8 12 -14 0 -6 -7 -7 -16 -4 -10 4 -13 2 -8
-6 5 -7 2 -9 -9 -5 -11 4 -14 2 -10 -9 5 -13 8 -13 29 1 14 9 28 14 32 11 13
-8 12 38 -1 47 -7 5 1 6 18 1 31 -7 78 -8 155 -2 31 3 45 9 45 19 0 7 10 24
23 37 12 12 22 32 22 45 0 16 -3 18 -9 8 -10 -16 -31 -6 -31 15 0 8 -7 14 -15
14 -18 0 -20 16 -2 23 6 3 2 6 -10 6 -13 1 -23 7 -23 14 0 13 -53 34 -109 43
-21 4 -31 2 -27 -4z"/>
<path d="M1543 5200 c23 -15 21 -49 -5 -71 -11 -11 -16 -19 -10 -19 6 0 14 5
17 10 14 22 23 8 27 -39 1 -27 1 -48 -2 -46 -3 2 -10 -3 -17 -10 -10 -11 3
-13 69 -14 45 0 83 -3 86 -6 3 -3 -12 -5 -34 -5 -73 0 -82 -7 -82 -55 1 -25 6
-43 12 -42 5 1 10 -4 11 -11 0 -7 5 -16 11 -20 12 -8 28 -43 26 -55 -3 -13
117 1 150 17 17 9 37 16 45 16 18 0 17 25 -2 40 -8 7 -15 19 -15 27 0 23 -41
75 -55 69 -7 -2 -23 7 -35 21 -15 18 -29 24 -46 20 -13 -2 -27 0 -30 4 -3 5 0
9 7 9 7 0 10 11 7 29 -3 18 0 28 6 24 5 -4 7 0 3 9 -3 9 -1 20 4 25 5 5 -2 21
-19 40 -23 27 -36 32 -87 37 -45 5 -56 4 -42 -4z"/>
<path d="M1173 5034 c-13 -14 -23 -31 -23 -38 0 -15 -98 -30 -125 -20 -14 6
-16 2 -13 -21 2 -17 -2 -30 -10 -33 -9 -3 -13 3 -12 14 4 36 0 42 -21 37 -12
-4 -16 -8 -10 -13 6 -3 15 -21 20 -38 8 -25 7 -32 -4 -32 -7 0 -15 -5 -17 -10
-2 -7 -18 -6 -44 4 -35 12 -44 12 -55 1 -15 -15 -60 -27 -94 -26 -16 0 -17 -2
-5 -9 12 -8 12 -11 -3 -28 -9 -10 -20 -33 -23 -50 -4 -18 -10 -32 -15 -32 -5
0 -9 -8 -9 -17 0 -16 1 -16 13 0 11 15 17 15 56 3 25 -7 47 -19 49 -26 3 -9
-1 -11 -11 -7 -11 4 -14 2 -10 -9 4 -10 9 -12 16 -5 10 10 52 -11 70 -34 5 -6
14 -3 25 10 10 11 30 20 48 21 32 1 45 9 91 54 25 24 26 24 21 3 -4 -14 0 -24
9 -27 23 -9 24 -7 13 15 -7 11 -9 27 -6 35 3 8 2 12 -3 9 -5 -3 -12 -1 -15 4
-3 4 -20 11 -37 15 -20 4 -29 11 -26 19 7 18 -17 48 -41 50 -16 1 -18 4 -10
14 9 11 14 11 26 1 8 -7 18 -12 21 -10 3 1 6 -4 6 -10 1 -7 7 -12 14 -10 9 2
10 -4 6 -19 -5 -15 -4 -19 4 -15 6 4 11 2 11 -3 0 -6 9 -11 20 -11 11 0 19 6
17 13 -1 6 5 11 14 11 11 -1 14 5 11 22 -5 26 7 31 27 12 11 -11 13 -8 8 15
-3 20 -1 25 6 18 16 -16 43 -13 58 6 11 13 11 17 2 20 -7 3 -13 10 -13 16 0
20 -73 13 -80 -8 -5 -15 -7 -16 -19 -1 -10 12 -10 16 -1 16 7 0 10 7 6 15 -4
12 0 14 17 10 25 -6 72 28 62 45 -3 5 1 17 9 26 17 16 21 34 9 34 -5 0 -18
-12 -30 -26z"/>
<path d="M289 5001 c-1 -3 -1 -10 0 -15 1 -4 -4 -14 -10 -22 -9 -11 -7 -14 12
-14 23 -1 23 -1 5 -15 -21 -16 -21 -17 9 -33 19 -11 19 -11 -4 -12 -17 0 -22
-4 -17 -16 9 -25 -10 -42 -42 -36 -15 3 -23 1 -19 -4 5 -5 14 -9 20 -10 7 0
20 -2 30 -2 23 -2 12 -22 -13 -22 -29 0 -17 -33 16 -42 16 -4 45 -7 64 -6 20
1 42 -2 50 -7 9 -5 11 -4 6 3 -4 6 2 28 13 49 17 31 20 34 21 16 0 -26 17 -31
22 -7 3 13 5 13 23 -1 11 -9 13 -13 5 -9 -12 5 -12 4 -4 -5 15 -16 49 -10 49
8 0 8 -10 15 -21 17 -12 2 -33 8 -48 14 -22 8 -26 14 -20 33 8 28 10 30 23 22
6 -3 11 -16 11 -28 0 -20 0 -20 14 -2 12 16 11 21 -1 34 -14 13 -13 16 3 21
13 5 14 9 5 14 -7 5 -15 5 -18 2 -12 -12 -45 16 -40 34 4 15 -3 22 -32 32 -37
13 -110 18 -112 9z"/>
<path d="M2226 4764 c-14 -15 -26 -31 -26 -36 0 -5 -4 -7 -9 -3 -11 6 -63 -46
-55 -54 3 -3 14 5 24 19 15 19 20 21 20 8 0 -17 -9 -28 -56 -69 -16 -13 -38
-43 -48 -66 -10 -24 -27 -45 -37 -48 -11 -4 -19 -13 -19 -22 0 -9 -8 -22 -17
-29 -10 -7 -13 -14 -6 -14 6 0 18 8 25 18 7 9 22 22 33 28 11 6 22 20 25 30 6
22 71 106 77 100 3 -2 -3 -16 -13 -30 -9 -15 -14 -29 -11 -32 3 -4 -3 -15 -14
-27 -10 -11 -19 -26 -19 -31 0 -6 -15 -19 -33 -30 -19 -11 -27 -21 -19 -23 7
-3 19 1 28 7 12 11 13 10 8 -6 -5 -14 0 -12 20 8 14 15 26 36 26 47 0 11 8 22
18 25 24 8 99 109 84 114 -18 6 -15 18 13 48 14 15 25 34 25 42 0 8 -16 -6
-36 -32 -19 -25 -33 -50 -30 -54 2 -4 1 -14 -4 -22 -7 -11 -11 -11 -24 2 -13
14 -14 17 -1 22 8 3 23 22 33 43 9 21 25 47 35 57 15 18 22 36 13 36 -2 0 -15
-12 -30 -26z"/>
<path d="M1175 4740 c-3 -5 -4 -14 0 -20 3 -5 -9 -13 -26 -18 -18 -4 -35 -14
-37 -21 -3 -10 2 -12 17 -8 11 3 24 1 27 -4 3 -5 1 -9 -5 -9 -22 0 3 -51 34
-68 19 -11 18 -11 -7 -12 -41 0 -37 -33 5 -47 43 -16 145 -13 151 4 3 7 12 13
20 13 8 0 16 5 18 12 3 7 11 9 24 4 17 -8 17 -9 -8 -18 -16 -5 -28 -13 -28
-17 0 -5 12 -6 28 -4 19 3 23 2 13 -5 -8 -6 -28 -10 -46 -10 -36 0 -102 -30
-126 -58 -9 -11 -19 -31 -23 -46 -5 -23 -3 -27 21 -30 14 -2 28 -10 30 -18 3
-11 2 -12 -4 -3 -5 7 -19 10 -33 6 -22 -6 -23 -7 -4 -14 16 -6 14 -7 -8 -6
-18 1 -24 5 -18 12 12 15 2 52 -16 59 -8 3 -14 1 -14 -4 0 -6 -7 -10 -15 -10
-8 0 -15 -5 -15 -11 0 -5 -4 -7 -10 -4 -6 4 -7 -5 -4 -23 4 -22 2 -31 -11 -35
-25 -10 -7 -28 20 -21 28 7 54 -4 35 -16 -16 -10 9 -52 29 -48 20 4 26 28 7
28 -19 0 -20 19 -2 43 14 17 32 24 21 8 -3 -5 -1 -12 5 -16 5 -3 10 -1 10 4 0
6 5 11 10 11 6 0 10 -8 8 -17 -2 -12 3 -18 17 -18 14 0 21 -8 24 -25 5 -37 21
-41 47 -11 l24 26 6 -22 c7 -25 20 -30 27 -10 3 6 6 8 6 2 0 -5 -4 -17 -9 -25
-9 -13 -12 -13 -24 3 -17 23 -26 22 -26 -3 0 -12 -6 -20 -13 -18 -7 2 -35 -12
-63 -30 -49 -31 -84 -35 -84 -9 0 6 -3 8 -6 5 -3 -4 2 -18 11 -32 16 -24 18
-24 40 -10 13 9 39 14 57 13 18 -2 39 0 45 4 6 4 14 3 17 -2 7 -11 -28 -43
-38 -34 -4 4 -11 1 -16 -7 -7 -10 -10 -11 -10 -2 0 6 -11 12 -25 12 -14 0 -25
-4 -25 -10 0 -5 9 -10 19 -10 11 0 22 -4 25 -9 3 -5 16 -7 28 -3 13 3 19 1 15
-5 -4 -6 3 -13 14 -16 12 -3 18 -10 14 -16 -3 -6 1 -11 10 -11 12 0 15 6 10
21 -6 18 -4 20 17 14 31 -10 33 -12 18 -30 -10 -12 -10 -15 4 -15 9 0 16 8 16
20 0 23 18 27 26 5 3 -8 14 -17 25 -20 10 -4 19 -13 19 -21 0 -8 7 -17 16 -21
9 -3 28 -17 42 -29 14 -13 32 -24 41 -24 9 0 24 -9 34 -20 16 -19 16 -20 -6
-21 -24 -1 45 -20 76 -20 9 0 17 -7 17 -15 0 -8 -4 -13 -9 -10 -4 3 -6 -6 -3
-19 2 -14 9 -25 14 -25 5 0 7 8 3 19 -5 17 -1 18 40 14 28 -4 45 -2 45 5 0 6
-6 13 -12 15 -10 4 -10 8 1 15 8 6 11 17 7 27 -4 11 0 22 11 31 16 12 16 12
-6 7 -19 -5 -23 -3 -19 8 4 8 9 22 13 32 4 10 3 17 -5 17 -6 0 -8 -4 -5 -10 3
-5 2 -10 -4 -10 -6 0 -18 -15 -27 -32 l-17 -33 -9 28 c-10 27 -10 27 -26 7
-22 -26 -72 -38 -72 -17 0 13 33 31 52 28 4 0 2 13 -4 30 -7 22 -7 34 1 42 15
15 26 0 12 -17 -8 -9 -8 -16 -2 -20 5 -4 12 3 16 14 5 16 12 19 28 14 19 -6
20 -5 8 9 -11 14 -11 18 5 24 31 11 94 65 94 80 0 10 -13 4 -37 -16 -27 -22
-39 -27 -45 -18 -5 8 -8 6 -8 -6 0 -14 -6 -18 -27 -15 -16 2 -27 8 -25 13 2 6
11 9 22 7 10 -2 21 2 25 8 3 6 11 8 16 5 5 -4 9 -1 9 6 0 6 10 20 22 30 22 20
14 26 -11 10 -10 -6 -25 -4 -44 5 -16 9 -31 13 -34 11 -2 -3 5 -10 16 -17 12
-6 21 -15 21 -20 0 -16 -72 -11 -91 6 -16 14 -35 16 -96 12 -13 -1 -23 -6 -23
-10 0 -4 -18 -7 -40 -6 -30 1 -37 4 -29 14 7 8 6 13 -3 17 -10 3 -10 8 -2 16
8 9 6 22 -8 51 -21 41 -17 63 7 53 18 -6 19 1 5 28 -12 22 -32 26 -24 4 8 -20
-25 -53 -36 -35 -4 7 -13 9 -19 6 -22 -14 -10 6 21 35 18 16 40 29 50 29 10 0
18 5 18 10 0 6 6 10 13 10 7 0 12 13 13 31 1 18 -2 25 -6 18 -12 -18 -36 -4
-51 30 -8 18 -21 31 -31 31 -10 0 -18 7 -18 15 0 11 8 13 33 8 17 -3 34 -7 36
-9 2 -2 10 1 17 7 9 7 19 3 38 -16 32 -32 44 -32 42 2 -1 21 5 28 23 33 29 7
40 30 14 30 -13 0 -14 3 -5 8 10 7 9 16 -3 48 -38 95 -59 126 -81 117 -8 -3
-14 0 -14 6 0 6 -7 11 -15 11 -8 0 -15 -7 -15 -15 0 -8 -6 -12 -14 -9 -7 3
-20 -1 -27 -9 -8 -7 -20 -12 -27 -9 -7 2 -12 -5 -12 -18 0 -17 -3 -20 -13 -12
-10 8 -13 6 -13 -8 0 -10 3 -17 6 -16 3 2 14 0 25 -5 17 -6 17 -8 3 -8 -15 -1
-16 -5 -8 -27 10 -24 9 -26 -11 -21 -15 4 -23 0 -26 -14 -5 -20 -15 -24 -26
-12 -4 3 -2 12 5 20 8 11 6 19 -13 40 -23 24 -23 26 -4 21 16 -4 21 0 22 16 1
12 -1 15 -4 9 -7 -20 -26 -15 -48 13 -50 64 -86 87 -100 64z"/>
<path d="M1790 4722 c-19 -9 -36 -20 -38 -24 -2 -5 -10 -8 -18 -8 -8 0 -14 -7
-14 -15 0 -9 -6 -15 -12 -14 -24 4 -108 -13 -103 -21 3 -4 22 -4 42 1 46 10
93 -5 93 -31 0 -10 7 -23 15 -30 8 -7 15 -18 14 -24 0 -7 -2 -6 -6 2 -5 14
-33 17 -33 3 0 -6 5 -13 10 -16 15 -9 2 -25 -15 -18 -8 3 -15 0 -15 -6 0 -6 6
-11 13 -11 7 0 30 -9 52 -20 22 -11 47 -20 57 -20 9 0 20 -5 23 -10 4 -6 11
-8 16 -4 6 3 2 20 -10 40 l-20 34 27 0 27 0 -29 25 c-26 22 -31 23 -38 10 -11
-19 -28 -19 -28 0 0 8 5 15 11 15 5 0 8 4 4 10 -3 5 13 15 35 21 37 11 41 15
35 38 -3 14 -15 33 -25 43 -11 9 -20 23 -20 32 0 20 -6 19 -50 -2z"/>
<path d="M1795 4378 c-16 -10 -38 -17 -47 -14 -22 5 -23 -1 -2 -22 11 -10 13
-17 5 -20 -6 -2 -11 -12 -11 -23 0 -11 -7 -19 -16 -19 -11 0 -14 6 -9 20 6 19
3 20 -22 14 -15 -4 -37 -15 -49 -25 -11 -11 -26 -19 -32 -19 -7 0 -12 -8 -12
-18 0 -10 -5 -23 -11 -29 -8 -8 -7 -17 4 -33 11 -15 16 -18 20 -8 4 10 7 10
15 -1 13 -18 64 -22 58 -4 -6 14 43 25 87 19 16 -2 37 4 51 15 13 10 25 16 28
14 3 -3 5 2 5 10 0 8 -4 12 -8 9 -4 -2 -11 1 -15 7 -4 8 -3 9 4 5 7 -4 12 -2
12 5 0 7 3 10 6 6 6 -6 34 16 34 26 0 3 -11 7 -25 10 -18 3 -29 -1 -36 -14 -5
-11 -14 -19 -20 -19 -6 0 -8 4 -5 9 3 4 -7 6 -22 3 -23 -5 -25 -3 -14 10 7 9
25 18 40 21 27 6 92 61 92 78 0 15 -19 10 -29 -8 -9 -16 -11 -16 -28 -2 -17
15 -20 15 -48 -3z"/>
<path d="M1471 3961 c-7 -5 -10 -14 -6 -21 8 -14 -24 -40 -42 -33 -23 9 -73
-36 -73 -67 0 -16 -7 -30 -16 -34 -26 -10 -30 -6 -10 9 19 14 19 15 -5 15 -14
0 -28 -3 -32 -6 -10 -10 20 -34 41 -34 11 0 22 -7 26 -15 4 -11 -2 -14 -24
-11 -31 3 -43 -16 -17 -28 10 -5 10 -7 0 -12 -7 -3 -13 -10 -13 -15 0 -5 9 -4
19 3 11 7 18 15 15 19 -10 17 20 21 32 4 12 -16 14 -16 29 -1 9 9 13 20 10 26
-3 5 1 10 9 10 9 0 16 -3 16 -7 0 -5 18 -9 41 -10 27 -2 39 1 37 9 -2 6 -10
14 -18 16 -7 3 -10 0 -6 -6 4 -6 -2 -8 -15 -5 -14 4 -17 8 -8 13 8 6 5 11 -11
20 -12 6 -19 14 -16 17 3 3 16 -1 28 -9 39 -24 138 -23 138 3 0 5 -11 9 -24 9
-14 0 -27 4 -30 8 -2 4 8 8 22 7 15 0 31 -6 35 -12 9 -15 53 -17 62 -4 3 5 1
12 -4 16 -6 3 -7 13 -4 23 6 15 4 15 -15 -2 -22 -19 -23 -19 -37 0 -10 14 -14
15 -15 5 0 -13 -2 -13 -12 -2 -10 11 -10 14 0 18 24 9 12 23 -14 17 -25 -6
-26 -5 -20 21 6 23 4 26 -10 21 -11 -4 -15 -2 -11 8 9 22 -26 33 -52 17z"/>
<path d="M1564 3775 c-21 -13 -39 -32 -41 -44 -4 -27 -38 -65 -51 -57 -5 3
-19 -6 -30 -19 -22 -25 -16 -35 6 -13 7 7 32 20 55 29 23 9 42 23 42 30 0 8 8
17 17 21 10 4 16 15 13 27 -2 13 3 22 16 26 25 8 50 -6 25 -15 -10 -3 -17 -10
-17 -15 0 -6 -7 -18 -16 -27 -8 -10 -13 -24 -10 -33 4 -9 1 -15 -8 -15 -22 0
-18 -23 8 -41 17 -11 41 -14 105 -11 45 2 82 8 82 14 0 15 -27 38 -44 38 -21
0 -29 17 -11 24 8 3 15 10 15 17 0 6 -6 9 -12 6 -21 -7 -51 8 -54 27 -2 12 2
16 12 12 8 -3 14 -1 14 3 0 5 -6 12 -12 14 -8 3 -5 6 5 6 10 1 16 5 12 10 -10
18 -83 9 -121 -14z"/>
<path d="M2038 3743 c-6 -16 -12 -37 -14 -47 -1 -11 -9 -25 -18 -31 -9 -7 -19
-26 -22 -44 -4 -17 -11 -34 -15 -37 -5 -3 -9 -14 -9 -25 0 -24 -65 -129 -80
-129 -6 0 -20 -9 -32 -20 -12 -11 -27 -20 -32 -20 -6 0 5 15 24 33 19 18 39
31 44 29 5 -3 7 5 4 16 -4 12 -3 22 1 22 7 0 28 42 56 118 15 38 15 38 -14 13
-13 -11 -20 -25 -16 -31 3 -5 -1 -17 -9 -26 -9 -8 -16 -22 -16 -30 0 -8 -4
-14 -10 -14 -5 0 -7 -7 -4 -14 4 -9 -13 -35 -41 -65 -26 -28 -43 -51 -36 -51
6 0 11 -7 11 -15 0 -8 5 -15 10 -15 6 0 10 5 10 10 0 6 5 10 11 10 6 0 9 -9 6
-20 -4 -15 0 -20 13 -20 13 0 28 20 49 65 17 36 31 69 31 74 0 5 7 15 16 22
15 12 16 11 9 -11 -4 -14 -12 -26 -16 -28 -5 -2 -9 -8 -9 -13 0 -18 16 -8 36
24 20 31 20 34 5 44 -14 10 -13 11 6 6 18 -4 21 -1 17 15 -3 10 1 26 10 34 8
9 12 19 8 22 -3 4 1 4 11 0 9 -3 17 -2 17 4 0 6 3 18 7 28 6 16 4 16 -20 -2
-14 -10 -27 -25 -27 -31 0 -18 -20 -16 -20 1 0 21 26 67 33 59 4 -3 7 1 7 10
0 9 9 31 20 49 11 18 20 39 20 46 0 22 -20 13 -32 -15z"/>
<path d="M4571 3674 c-1 -14 -41 -58 -61 -67 -8 -4 -28 -16 -45 -26 -35 -23
-65 -26 -65 -8 0 6 -5 4 -11 -6 -5 -9 -7 -22 -4 -27 3 -6 2 -10 -3 -10 -6 0
-13 11 -16 25 -4 14 -11 25 -16 25 -5 0 -7 -7 -3 -17 5 -13 2 -15 -18 -10 -13
4 -30 7 -38 7 -11 0 -9 4 5 14 18 14 18 15 -8 21 -14 4 -28 15 -31 26 -4 16
-12 18 -42 14 -21 -2 -45 0 -55 5 -11 6 -47 3 -105 -9 -76 -16 -91 -17 -102
-5 -12 12 -9 14 20 14 20 0 40 7 48 16 12 15 11 16 -7 10 -11 -3 -44 -7 -73
-7 -37 -1 -49 -5 -39 -11 8 -6 -4 -8 -37 -4 -27 4 -54 11 -59 16 -15 15 -26
12 -20 -5 4 -8 20 -19 38 -25 31 -9 -128 -6 -264 6 -47 4 -51 3 -30 -7 14 -6
54 -14 90 -18 40 -4 64 -11 63 -18 -2 -11 78 -42 114 -44 10 0 -4 -6 -32 -13
-27 -6 -48 -16 -46 -21 4 -11 -71 -26 -79 -16 -8 12 -38 20 -42 12 -2 -4 -22
-10 -46 -14 -24 -3 -40 -1 -36 4 3 5 -7 9 -23 8 -15 0 -22 -3 -15 -6 29 -11 7
-20 -64 -26 -42 -4 -90 -13 -107 -21 -28 -12 -86 -34 -162 -62 -11 -4 -24 -8
-29 -8 -5 -1 -11 -7 -14 -15 -4 -11 4 -13 38 -8 38 5 41 4 28 -9 -19 -19 -36
-22 -117 -23 -105 -1 -64 -11 60 -13 97 -3 117 0 132 15 21 21 49 23 41 2 -4
-8 -10 -15 -16 -15 -5 0 -7 -4 -3 -10 3 -5 16 1 28 13 19 19 22 20 25 4 3 -17
22 -24 22 -8 0 18 80 28 175 22 l40 -3 -30 -14 -30 -14 35 6 c19 4 37 10 38
15 6 15 22 10 22 -6 0 -8 10 -19 23 -25 20 -10 20 -10 5 3 -25 20 -22 25 7 19
14 -2 25 -8 25 -12 0 -5 14 -12 32 -15 29 -7 30 -8 14 -21 -11 -7 -16 -20 -13
-29 4 -9 1 -15 -8 -15 -8 0 -15 -5 -15 -11 0 -6 9 -9 20 -6 11 3 22 2 25 -3 2
-4 17 -6 32 -4 36 4 46 -4 29 -22 -9 -9 -36 -14 -74 -14 -40 0 -64 -5 -72 -15
-6 -8 -15 -14 -18 -13 -18 4 -103 -15 -108 -24 -4 -7 15 -8 57 -2 35 4 114 8
174 9 61 0 117 4 125 7 35 15 85 14 118 -2 39 -19 44 -19 114 13 46 21 53 32
50 70 -1 10 9 22 22 29 14 6 27 21 30 34 7 25 20 31 31 14 11 -18 25 -11 22
12 -2 20 4 23 51 31 58 10 61 16 11 26 -54 11 -45 28 38 67 92 44 153 88 179
129 51 79 65 107 60 118 -3 8 -5 8 -5 1z"/>
<path d="M2130 3623 c-6 -16 -15 -36 -21 -47 -8 -13 -8 -21 0 -29 8 -8 11 -7
11 3 0 7 2 11 5 8 10 -10 -7 -37 -20 -31 -9 3 -22 -8 -34 -27 -17 -29 -20 -30
-30 -13 -10 15 -10 14 -5 -9 4 -17 1 -29 -8 -35 -18 -10 -45 -59 -53 -95 -3
-16 -10 -28 -16 -28 -8 0 -7 5 1 15 7 9 10 19 6 23 -4 4 -13 0 -19 -8 -7 -8
-21 -22 -31 -30 -19 -15 -19 -15 -1 15 11 17 28 40 40 51 38 41 65 76 65 86 0
6 -8 2 -17 -9 -10 -11 -40 -46 -68 -78 -59 -68 -62 -73 -41 -81 9 -3 16 -12
16 -20 0 -22 -17 -16 -24 9 l-6 22 -22 -25 c-13 -14 -31 -41 -41 -60 -10 -19
-15 -27 -13 -17 6 20 -14 23 -33 5 -11 -11 -13 -9 -8 10 4 18 1 22 -21 23 -15
1 -38 3 -52 4 -31 4 -110 -32 -118 -54 -3 -9 -10 -19 -15 -23 -6 -4 -4 -30 7
-70 10 -34 21 -79 26 -98 16 -63 46 -141 57 -148 6 -4 12 -15 14 -25 2 -10 9
-17 14 -16 6 2 12 -10 15 -27 8 -44 36 -39 31 6 -1 19 -8 38 -13 41 -6 4 -7
12 -2 20 5 8 9 39 10 69 1 30 2 57 3 60 1 3 3 30 4 60 2 43 6 55 18 54 9 -1
16 5 16 12 0 7 -4 11 -9 8 -4 -3 -3 7 4 22 10 21 14 24 16 11 3 -13 10 -15 30
-11 15 4 32 11 38 15 16 13 24 0 24 -38 0 -20 4 -32 10 -28 6 3 10 15 10 26 0
10 5 28 12 39 10 16 9 23 -12 45 -13 14 -20 25 -15 25 4 0 13 -7 20 -17 12
-16 35 -11 35 8 0 6 -5 7 -11 3 -6 -3 -3 8 6 25 9 18 20 29 25 26 6 -4 13 2
17 11 3 10 15 26 25 36 10 10 18 29 18 42 0 14 6 31 13 38 7 7 16 21 20 31 12
31 23 18 19 -24 -3 -22 -10 -43 -18 -46 -8 -3 -14 -12 -14 -20 0 -8 -6 -21
-14 -28 -7 -8 -11 -25 -9 -39 6 -30 23 -35 23 -8 0 11 6 32 14 48 26 52 39 89
37 103 -1 7 2 10 7 7 6 -3 13 1 16 10 3 9 13 14 20 11 10 -4 20 8 31 41 10 26
21 56 25 67 26 66 32 86 26 92 -3 3 -6 2 -6 -4 0 -15 -50 -66 -58 -59 -3 4 2
20 12 36 10 17 13 30 6 30 -6 0 -15 -12 -20 -27z"/>
<path d="M1453 3415 c0 -30 -31 -68 -50 -61 -9 4 -13 -4 -12 -27 0 -18 3 -26
6 -19 2 6 13 12 23 12 10 0 22 5 25 10 7 11 25 4 25 -8 0 -4 -10 -12 -22 -17
-14 -7 -22 -21 -25 -43 -2 -20 1 -31 7 -27 6 3 10 12 10 19 0 13 42 26 84 26
32 0 63 72 46 105 -7 13 -18 21 -25 19 -7 -3 -15 2 -19 11 -4 11 -13 14 -25
10 -11 -3 -22 -1 -26 5 -11 18 -22 11 -22 -15z"/>
<path d="M2206 3308 c-5 -10 -14 -18 -21 -18 -6 0 -17 -10 -23 -22 -8 -18 -11
-19 -11 -5 -2 44 -40 -5 -41 -53 -1 -19 -6 -44 -11 -55 -6 -14 -8 6 -6 62 2
69 0 78 -10 60 -7 -12 -10 -30 -6 -41 3 -10 1 -16 -4 -13 -5 3 -9 -8 -9 -26 0
-18 -4 -51 -8 -75 -8 -38 -7 -42 9 -36 14 6 16 2 11 -27 -9 -60 14 -108 27
-57 12 46 19 7 7 -42 -7 -28 -9 -54 -6 -57 3 -4 6 1 6 9 0 8 11 50 25 93 13
43 22 82 18 88 -3 6 -1 7 5 3 11 -6 13 -3 12 19 0 3 7 19 16 36 9 18 14 45 12
60 -3 16 -1 29 4 29 4 0 8 -17 9 -37 0 -33 2 -35 10 -17 7 13 7 41 1 80 -6 41
-11 54 -16 42z"/>
<path d="M2050 2870 c0 -5 -6 -10 -14 -10 -8 0 -17 -13 -21 -30 -4 -16 -13
-30 -21 -30 -8 0 -14 -4 -14 -10 0 -5 5 -10 10 -10 20 0 10 -17 -17 -29 -20
-9 -24 -15 -14 -21 8 -4 10 -13 6 -20 -6 -9 -9 -9 -16 1 -7 11 -9 9 -9 -6 0
-12 -9 -39 -20 -60 -12 -23 -16 -41 -10 -43 5 -2 10 -8 10 -13 0 -4 -7 -6 -15
-3 -8 4 -15 1 -15 -5 0 -6 7 -11 16 -11 8 0 12 -4 9 -10 -3 -5 0 -7 8 -4 9 3
17 -3 20 -16 3 -12 10 -19 15 -16 6 3 13 -2 17 -12 10 -23 24 42 24 118 1 39
9 69 27 105 16 31 27 69 28 98 1 26 1 47 -1 47 -2 0 -3 -4 -3 -10z"/>
<path d="M2206 2792 c-9 -32 -14 -66 -10 -75 4 -12 1 -17 -10 -17 -13 0 -16
-11 -16 -49 0 -28 5 -53 10 -56 6 -3 10 -14 10 -24 0 -10 9 -26 20 -36 11 -10
20 -25 20 -34 1 -13 3 -13 15 3 15 19 15 19 16 -5 1 -21 2 -20 8 6 4 17 2 33
-3 37 -5 4 -9 30 -9 59 1 38 -2 48 -9 36 -14 -27 -29 -21 -18 8 6 15 6 26 0
30 -12 8 -13 45 -1 45 8 0 7 117 -1 126 -2 2 -12 -22 -22 -54z"/>
<path d="M3960 2640 c0 -6 -26 -23 -59 -39 -32 -15 -75 -44 -96 -64 -21 -20
-46 -37 -57 -37 -10 0 -18 -6 -18 -14 0 -8 -27 -42 -60 -75 -33 -34 -60 -66
-60 -71 0 -6 -4 -8 -10 -5 -5 3 -10 2 -10 -3 0 -5 -11 -15 -25 -22 -16 -8 -24
-19 -20 -28 4 -10 0 -12 -11 -8 -13 5 -15 2 -11 -14 3 -11 2 -20 -3 -20 -4 0
-10 -8 -14 -17 -7 -22 -24 -48 -53 -82 -32 -38 -73 -100 -73 -111 0 -6 -4 -10
-10 -10 -5 0 -10 -11 -10 -25 0 -14 -7 -28 -15 -31 -15 -6 -21 -45 -9 -57 4
-3 15 -2 25 4 29 15 23 4 -18 -36 -25 -24 -31 -35 -20 -35 10 0 17 -4 17 -10
0 -20 18 -9 24 15 4 14 11 25 16 25 6 0 10 8 10 18 0 10 23 45 50 77 28 33 58
72 67 86 9 15 30 35 45 45 15 11 28 24 28 30 0 18 71 94 87 94 8 0 12 4 9 8
-3 5 8 19 24 31 17 12 30 28 30 36 0 8 7 15 15 15 9 0 18 8 22 18 11 31 54 71
72 65 12 -4 13 -3 3 4 -17 12 3 30 47 43 28 8 32 6 37 -16 7 -28 24 -32 25 -6
1 9 3 34 4 55 4 34 2 37 -16 32 -13 -4 -19 -2 -19 9 0 9 4 16 9 16 5 0 11 8
14 18 4 9 13 35 21 57 19 48 18 45 6 45 -5 0 -10 -5 -10 -10z"/>
<path d="M566 2543 c-4 -4 -15 -8 -24 -8 -9 0 -18 -8 -20 -17 -2 -13 1 -16 12
-12 9 3 16 1 16 -5 0 -6 -9 -11 -20 -11 -17 0 -19 -3 -10 -19 15 -29 12 -41
-12 -51 l-23 -9 24 0 c14 -1 32 -8 42 -17 13 -12 22 -13 37 -5 13 7 22 7 31
-2 10 -9 15 -8 23 7 8 15 12 16 20 5 7 -11 11 -11 15 -1 2 6 11 12 18 12 7 0
15 7 19 15 3 8 11 15 18 15 17 1 58 35 58 49 0 6 -15 12 -32 12 -36 2 -76 5
-95 7 -7 1 -10 9 -6 18 4 12 0 14 -20 9 -14 -4 -28 -2 -31 4 -8 13 -29 14 -40
4z"/>
<path d="M1634 2405 c-10 -8 -27 -15 -36 -15 -13 0 -18 -8 -18 -31 0 -19 -7
-37 -17 -45 -17 -13 -17 -13 0 -14 9 0 17 5 17 10 0 6 22 10 49 10 28 0 53 -4
56 -10 3 -5 0 -10 -7 -10 -8 0 -23 -6 -33 -14 -19 -14 -19 -15 6 -26 21 -10
32 -9 58 4 35 18 36 22 19 80 -20 72 -52 93 -94 61z"/>
<path d="M725 2343 c-3 -10 -1 -45 6 -79 11 -55 15 -62 44 -73 17 -6 39 -11
48 -11 9 0 17 -4 17 -10 0 -5 5 -10 10 -10 6 0 10 7 10 15 0 9 9 15 21 15 26
0 72 35 75 58 1 9 5 25 9 36 7 16 4 18 -23 14 -25 -4 -35 0 -46 17 -26 40
-158 61 -171 28z"/>
<path d="M450 2102 c-87 -6 -103 -31 -67 -103 17 -34 18 -42 6 -50 -11 -8 -10
-13 10 -29 17 -14 38 -20 76 -20 29 0 66 -3 83 -6 27 -6 31 -3 37 24 4 21 11
29 21 25 9 -3 14 2 14 15 0 38 -18 70 -42 74 -16 2 -23 9 -22 24 0 25 -63 50
-116 46z"/>
<path d="M0 2045 c0 -60 9 -66 64 -45 14 5 26 6 26 1 0 -5 -15 -12 -32 -15
-18 -3 -40 -11 -48 -16 -13 -9 -13 -11 0 -20 12 -8 12 -12 2 -18 -10 -7 -13
-42 -11 -143 2 -133 2 -134 25 -135 13 -1 24 2 24 8 0 5 5 6 12 2 8 -5 7 -10
-4 -18 -21 -15 -41 -56 -28 -56 5 0 10 7 10 15 0 8 6 15 14 15 8 0 17 6 19 13
4 7 6 6 6 -5 1 -9 -4 -19 -9 -21 -6 -3 -5 -4 2 -3 13 3 15 59 5 156 -4 36 -9
46 -26 48 -24 4 -26 12 -8 31 10 11 9 15 -5 24 -15 10 -15 12 0 24 16 11 16
12 -1 13 -15 0 -16 3 -7 20 6 11 8 26 4 32 -5 7 0 9 14 6 14 -4 22 -2 22 7 0
7 11 15 25 17 18 4 29 -1 40 -18 19 -30 19 -34 -4 -34 -11 0 -23 -5 -26 -10
-4 -7 2 -9 19 -4 15 3 32 1 40 -6 40 -32 92 -195 103 -322 3 -38 10 -68 14
-68 12 0 11 8 -10 140 -11 63 -33 159 -50 214 -17 54 -31 106 -31 116 0 10 -7
24 -16 31 -9 7 -20 23 -24 34 -9 23 -67 45 -119 45 -31 0 -31 0 -31 -55z"/>
<path d="M813 2085 c-28 -19 -35 -70 -13 -98 9 -12 19 -29 23 -38 5 -16 40
-25 115 -32 17 -1 32 1 32 5 0 5 12 6 28 3 34 -6 62 2 62 19 0 7 9 25 20 39
18 22 18 26 4 38 -9 7 -21 14 -28 15 -14 2 -49 19 -96 44 -42 23 -118 26 -147
5z"/>
<path d="M476 1861 c-28 -6 -70 -51 -47 -51 6 0 11 -9 11 -19 0 -11 5 -23 10
-26 6 -3 10 -13 10 -22 0 -19 28 -42 53 -43 9 0 17 -5 17 -11 0 -6 8 -8 19 -4
11 3 22 1 26 -5 3 -5 -1 -10 -9 -10 -9 0 -16 -4 -16 -10 0 -5 9 -10 20 -10 11
0 20 5 20 10 0 6 7 10 17 10 15 0 15 1 0 18 -21 23 -12 35 14 19 15 -9 26 -8
54 7 35 19 46 49 23 60 -7 3 -4 4 7 3 30 -3 27 37 -3 41 -12 2 -21 -1 -20 -6
2 -6 -1 -9 -7 -8 -5 0 -9 12 -7 25 2 18 0 22 -13 17 -9 -3 -46 1 -81 9 -36 8
-66 14 -67 14 -1 -1 -15 -4 -31 -8z"/>
<path d="M1948 1652 c-1 -4 -37 -30 -78 -57 -41 -27 -102 -70 -136 -95 l-60
-47 -115 -6 c-167 -9 -229 -20 -229 -39 0 -6 7 -7 16 -4 13 5 14 4 6 -7 -7 -8
-9 -17 -5 -20 3 -4 1 -7 -5 -7 -7 0 -12 7 -12 15 0 8 -9 15 -19 15 -11 0 -26
3 -35 6 -9 3 -16 1 -16 -5 0 -6 8 -11 18 -12 14 0 14 -2 -3 -8 -11 -5 -23 -4
-26 1 -4 7 -9 7 -13 0 -3 -5 -27 -13 -52 -17 -34 -5 -48 -12 -51 -26 -3 -10
-10 -19 -15 -19 -6 0 -7 7 -4 16 5 13 1 15 -21 9 -16 -3 -37 -15 -49 -26 -11
-10 -25 -19 -31 -19 -6 0 -16 -7 -23 -15 -7 -8 -16 -12 -21 -9 -5 2 -21 -2
-36 -9 -15 -8 -66 -27 -113 -43 -47 -16 -101 -36 -120 -45 -23 -12 -40 -14
-52 -8 -10 6 -19 5 -23 -1 -4 -6 -11 -8 -16 -5 -5 4 -12 -1 -15 -9 -4 -10 -19
-16 -41 -16 -20 0 -52 -5 -73 -11 -30 -9 -51 -8 -116 9 -95 24 -228 28 -220 6
7 -18 -12 -18 -46 0 -15 8 -42 16 -60 18 l-33 3 -3 -582 -2 -583 1111 0 c611
0 1109 3 1107 8 -2 4 -33 53 -71 109 -189 283 -290 607 -286 913 1 114 21 305
32 317 4 3 11 -6 16 -20 7 -18 15 -25 26 -21 13 5 11 11 -10 32 -26 25 -34 62
-14 62 6 0 8 7 5 16 -4 9 -2 22 2 28 9 10 35 114 46 184 5 28 -7 46 -16 24z"/>
</g>
</svg>
